<svg width="395" height="441" viewBox="0 0 395 441" fill="none" xmlns="http://www.w3.org/2000/svg">
<path d="M0 8.57812C0 4.15984 3.58172 0.578125 8 0.578125H395V440.578H8.00001C3.58173 440.578 0 436.996 0 432.578V8.57812Z" fill="#7379D8" fill-opacity="0.37"/>
<path d="M0 8.57812C0 4.15984 3.58172 0.578125 8 0.578125H395V440.578H8.00001C3.58173 440.578 0 436.996 0 432.578V8.57812Z" fill="url(#paint0_linear_4365_10261)"/>
<path d="M387.862 397.282L380.411 432.422C379.848 434.903 378.382 435.52 376.299 434.352L364.945 425.985L359.467 431.254C358.861 431.86 358.354 432.368 357.186 432.368L358.001 420.804L379.044 401.79C379.959 400.974 378.845 400.522 377.622 401.338L351.608 417.718L340.409 414.213C337.973 413.452 337.929 411.777 340.916 410.608L384.721 393.732C386.749 392.972 388.523 394.184 387.862 397.282Z" fill="#EFFBFF"/>
<path d="M387.862 226.926L380.411 262.067C379.848 264.547 378.382 265.164 376.299 263.996L364.945 255.63L359.467 260.899C358.861 261.505 358.354 262.012 357.186 262.012L358.001 250.449L379.044 231.434C379.959 230.619 378.845 230.167 377.622 230.982L351.608 247.362L340.409 243.857C337.973 243.097 337.929 241.421 340.916 240.253L384.721 223.377C386.749 222.616 388.523 223.829 387.862 226.926Z" fill="#EFFBFF"/>
<path d="M387.862 65.6565L380.411 100.797C379.848 103.278 378.382 103.895 376.299 102.727L364.945 94.3601L359.467 99.6291C358.861 100.235 358.354 100.743 357.186 100.743L358.001 89.1793L379.044 70.1648C379.959 69.3492 378.845 68.8972 377.622 69.7129L351.608 86.0928L340.409 82.5877C337.973 81.827 337.929 80.1515 340.916 78.9832L384.721 62.1072C386.749 61.3467 388.523 62.559 387.862 65.6565Z" fill="#EFFBFF"/>
<path d="M387.862 341.629L380.411 376.77C379.848 379.25 378.382 379.867 376.299 378.699L364.945 370.333L359.467 375.602C358.861 376.208 358.354 376.715 357.186 376.715L358.001 365.152L379.044 346.137C379.959 345.322 378.845 344.87 377.622 345.686L351.608 362.066L340.409 358.56C337.973 357.8 337.929 356.124 340.916 354.956L384.721 338.08C386.749 337.319 388.523 338.532 387.862 341.629Z" fill="#EFFBFF"/>
<path d="M387.862 171.278L380.411 206.419C379.848 208.899 378.382 209.516 376.299 208.348L364.945 199.981L359.467 205.25C358.861 205.856 358.354 206.364 357.186 206.364L358.001 194.8L379.044 175.786C379.959 174.97 378.845 174.518 377.622 175.334L351.608 191.714L340.409 188.209C337.973 187.448 337.929 185.773 340.916 184.604L384.721 167.728C386.749 166.968 388.523 168.18 387.862 171.278Z" fill="#EFFBFF"/>
<path d="M387.862 10.0081L380.411 45.149C379.848 47.6292 378.382 48.2463 376.299 47.0782L364.945 38.7117L359.467 43.9807C358.861 44.5869 358.354 45.0941 357.186 45.0941L358.001 33.5308L379.044 14.5164C379.959 13.7008 378.845 13.2488 377.622 14.0645L351.608 30.4444L340.409 26.9392C337.973 26.1786 337.929 24.5031 340.916 23.3348L384.721 6.4588C386.749 5.69827 388.523 6.9106 387.862 10.0081Z" fill="#EFFBFF"/>
<path d="M387.862 282.575L380.411 317.715C379.848 320.196 378.382 320.813 376.299 319.645L364.945 311.278L359.467 316.547C358.861 317.153 358.354 317.66 357.186 317.66L358.001 306.097L379.044 287.083C379.959 286.267 378.845 285.815 377.622 286.631L351.608 303.011L340.409 299.506C337.973 298.745 337.929 297.069 340.916 295.901L384.721 279.025C386.749 278.265 388.523 279.477 387.862 282.575Z" fill="#EFFBFF"/>
<path d="M387.862 112.219L380.411 147.36C379.848 149.84 378.382 150.457 376.299 149.289L364.945 140.923L359.467 146.192C358.861 146.798 358.354 147.305 357.186 147.305L358.001 135.742L379.044 116.727C379.959 115.912 378.845 115.46 377.622 116.275L351.608 132.655L340.409 129.15C337.973 128.39 337.929 126.714 340.916 125.546L384.721 108.67C386.749 107.909 388.523 109.122 387.862 112.219Z" fill="#EFFBFF"/>
<path d="M320.846 397.282L313.395 432.422C312.833 434.903 311.367 435.52 309.283 434.352L297.93 425.985L292.452 431.254C291.846 431.86 291.338 432.368 290.17 432.368L290.986 420.804L312.028 401.79C312.943 400.974 311.83 400.522 310.606 401.338L284.592 417.718L273.393 414.213C270.957 413.452 270.913 411.777 273.9 410.608L317.705 393.732C319.733 392.972 321.508 394.184 320.846 397.282Z" fill="#EFFBFF"/>
<path d="M320.846 226.926L313.395 262.067C312.833 264.547 311.367 265.164 309.283 263.996L297.93 255.63L292.452 260.899C291.846 261.505 291.338 262.012 290.17 262.012L290.986 250.449L312.028 231.434C312.943 230.619 311.83 230.167 310.606 230.982L284.592 247.362L273.393 243.857C270.957 243.097 270.913 241.421 273.9 240.253L317.705 223.377C319.733 222.616 321.508 223.829 320.846 226.926Z" fill="#EFFBFF"/>
<path d="M320.846 65.6565L313.395 100.797C312.833 103.278 311.367 103.895 309.283 102.727L297.93 94.3601L292.452 99.6291C291.846 100.235 291.338 100.743 290.17 100.743L290.986 89.1793L312.028 70.1648C312.943 69.3492 311.83 68.8972 310.606 69.7129L284.592 86.0928L273.393 82.5877C270.957 81.827 270.913 80.1515 273.9 78.9832L317.705 62.1072C319.733 61.3467 321.508 62.559 320.846 65.6565Z" fill="#EFFBFF"/>
<path d="M320.846 341.629L313.395 376.77C312.833 379.25 311.367 379.867 309.283 378.699L297.93 370.333L292.452 375.602C291.846 376.208 291.338 376.715 290.17 376.715L290.986 365.152L312.028 346.137C312.943 345.322 311.83 344.87 310.606 345.686L284.592 362.066L273.393 358.56C270.957 357.8 270.913 356.124 273.9 354.956L317.705 338.08C319.733 337.319 321.508 338.532 320.846 341.629Z" fill="#EFFBFF"/>
<path d="M320.846 171.278L313.395 206.419C312.833 208.899 311.367 209.516 309.283 208.348L297.93 199.981L292.452 205.25C291.846 205.856 291.338 206.364 290.17 206.364L290.986 194.8L312.028 175.786C312.943 174.97 311.83 174.518 310.606 175.334L284.592 191.714L273.393 188.209C270.957 187.448 270.913 185.773 273.9 184.604L317.705 167.728C319.733 166.968 321.508 168.18 320.846 171.278Z" fill="#EFFBFF"/>
<path d="M320.846 10.0081L313.395 45.149C312.833 47.6292 311.367 48.2463 309.283 47.0782L297.93 38.7117L292.452 43.9807C291.846 44.5869 291.338 45.0941 290.17 45.0941L290.986 33.5308L312.028 14.5164C312.943 13.7008 311.83 13.2488 310.606 14.0645L284.592 30.4444L273.393 26.9392C270.957 26.1786 270.913 24.5031 273.9 23.3348L317.705 6.4588C319.733 5.69827 321.508 6.9106 320.846 10.0081Z" fill="#EFFBFF"/>
<path d="M320.846 282.575L313.395 317.715C312.833 320.196 311.367 320.813 309.283 319.645L297.93 311.278L292.452 316.547C291.846 317.153 291.338 317.66 290.17 317.66L290.986 306.097L312.028 287.083C312.943 286.267 311.83 285.815 310.606 286.631L284.592 303.011L273.393 299.506C270.957 298.745 270.913 297.069 273.9 295.901L317.705 279.025C319.733 278.265 321.508 279.477 320.846 282.575Z" fill="#EFFBFF"/>
<path d="M320.846 112.219L313.395 147.36C312.833 149.84 311.367 150.457 309.283 149.289L297.93 140.923L292.452 146.192C291.846 146.798 291.338 147.305 290.17 147.305L290.986 135.742L312.028 116.727C312.943 115.912 311.83 115.46 310.606 116.275L284.592 132.655L273.393 129.15C270.957 128.39 270.913 126.714 273.9 125.546L317.705 108.67C319.733 107.909 321.508 109.122 320.846 112.219Z" fill="#EFFBFF"/>
<path d="M253.846 397.282L246.395 432.422C245.833 434.903 244.367 435.52 242.283 434.352L230.93 425.985L225.452 431.254C224.846 431.86 224.338 432.368 223.17 432.368L223.986 420.804L245.028 401.79C245.943 400.974 244.83 400.522 243.606 401.338L217.592 417.718L206.393 414.213C203.957 413.452 203.913 411.777 206.9 410.608L250.705 393.732C252.733 392.972 254.508 394.184 253.846 397.282Z" fill="#EFFBFF"/>
<path d="M253.846 226.926L246.395 262.067C245.833 264.547 244.367 265.164 242.283 263.996L230.93 255.63L225.452 260.899C224.846 261.505 224.338 262.012 223.17 262.012L223.986 250.449L245.028 231.434C245.943 230.619 244.83 230.167 243.606 230.982L217.592 247.362L206.393 243.857C203.957 243.097 203.913 241.421 206.9 240.253L250.705 223.377C252.733 222.616 254.508 223.829 253.846 226.926Z" fill="#EFFBFF"/>
<path d="M253.846 65.6565L246.395 100.797C245.833 103.278 244.367 103.895 242.283 102.727L230.93 94.3601L225.452 99.6291C224.846 100.235 224.338 100.743 223.17 100.743L223.986 89.1793L245.028 70.1648C245.943 69.3492 244.83 68.8972 243.606 69.7129L217.592 86.0928L206.393 82.5877C203.957 81.827 203.913 80.1515 206.9 78.9832L250.705 62.1072C252.733 61.3467 254.508 62.559 253.846 65.6565Z" fill="#EFFBFF"/>
<path d="M253.846 341.629L246.395 376.77C245.833 379.25 244.367 379.867 242.283 378.699L230.93 370.333L225.452 375.602C224.846 376.208 224.338 376.715 223.17 376.715L223.986 365.152L245.028 346.137C245.943 345.322 244.83 344.87 243.606 345.686L217.592 362.066L206.393 358.56C203.957 357.8 203.913 356.124 206.9 354.956L250.705 338.08C252.733 337.319 254.508 338.532 253.846 341.629Z" fill="#EFFBFF"/>
<path d="M253.846 171.278L246.395 206.419C245.833 208.899 244.367 209.516 242.283 208.348L230.93 199.981L225.452 205.25C224.846 205.856 224.338 206.364 223.17 206.364L223.986 194.8L245.028 175.786C245.943 174.97 244.83 174.518 243.606 175.334L217.592 191.714L206.393 188.209C203.957 187.448 203.913 185.773 206.9 184.604L250.705 167.728C252.733 166.968 254.508 168.18 253.846 171.278Z" fill="#EFFBFF"/>
<path d="M253.846 10.0081L246.395 45.149C245.833 47.6292 244.367 48.2463 242.283 47.0782L230.93 38.7117L225.452 43.9807C224.846 44.5869 224.338 45.0941 223.17 45.0941L223.986 33.5308L245.028 14.5164C245.943 13.7008 244.83 13.2488 243.606 14.0645L217.592 30.4444L206.393 26.9392C203.957 26.1786 203.913 24.5031 206.9 23.3348L250.705 6.4588C252.733 5.69827 254.508 6.9106 253.846 10.0081Z" fill="#EFFBFF"/>
<path d="M253.846 282.575L246.395 317.715C245.833 320.196 244.367 320.813 242.283 319.645L230.93 311.278L225.452 316.547C224.846 317.153 224.338 317.66 223.17 317.66L223.986 306.097L245.028 287.083C245.943 286.267 244.83 285.815 243.606 286.631L217.592 303.011L206.393 299.506C203.957 298.745 203.913 297.069 206.9 295.901L250.705 279.025C252.733 278.265 254.508 279.477 253.846 282.575Z" fill="#EFFBFF"/>
<path d="M253.846 112.219L246.395 147.36C245.833 149.84 244.367 150.457 242.283 149.289L230.93 140.923L225.452 146.192C224.846 146.798 224.338 147.305 223.17 147.305L223.986 135.742L245.028 116.727C245.943 115.912 244.83 115.46 243.606 116.275L217.592 132.655L206.393 129.15C203.957 128.39 203.913 126.714 206.9 125.546L250.705 108.67C252.733 107.909 254.508 109.122 253.846 112.219Z" fill="#EFFBFF"/>
<path d="M187.979 397.282L180.528 432.422C179.966 434.903 178.5 435.52 176.416 434.352L165.063 425.985L159.585 431.254C158.978 431.86 158.471 432.368 157.303 432.368L158.118 420.804L179.161 401.79C180.076 400.974 178.963 400.522 177.739 401.338L151.725 417.718L140.526 414.213C138.09 413.452 138.046 411.777 141.033 410.608L184.838 393.732C186.866 392.972 188.641 394.184 187.979 397.282Z" fill="#EFFBFF"/>
<path d="M187.979 226.926L180.528 262.067C179.966 264.547 178.5 265.164 176.416 263.996L165.063 255.63L159.585 260.899C158.978 261.505 158.471 262.012 157.303 262.012L158.118 250.449L179.161 231.434C180.076 230.619 178.963 230.167 177.739 230.982L151.725 247.362L140.526 243.857C138.09 243.097 138.046 241.421 141.033 240.253L184.838 223.377C186.866 222.616 188.641 223.829 187.979 226.926Z" fill="#EFFBFF"/>
<path d="M187.979 65.6565L180.528 100.797C179.966 103.278 178.5 103.895 176.416 102.727L165.063 94.3601L159.585 99.6291C158.978 100.235 158.471 100.743 157.303 100.743L158.118 89.1793L179.161 70.1648C180.076 69.3492 178.963 68.8972 177.739 69.7129L151.725 86.0928L140.526 82.5877C138.09 81.827 138.046 80.1515 141.033 78.9832L184.838 62.1072C186.866 61.3467 188.641 62.559 187.979 65.6565Z" fill="#EFFBFF"/>
<path d="M187.979 341.629L180.528 376.77C179.966 379.25 178.5 379.867 176.416 378.699L165.063 370.333L159.585 375.602C158.978 376.208 158.471 376.715 157.303 376.715L158.118 365.152L179.161 346.137C180.076 345.322 178.963 344.87 177.739 345.686L151.725 362.066L140.526 358.56C138.09 357.8 138.046 356.124 141.033 354.956L184.838 338.08C186.866 337.319 188.641 338.532 187.979 341.629Z" fill="#EFFBFF"/>
<path d="M187.979 171.278L180.528 206.419C179.966 208.899 178.5 209.516 176.416 208.348L165.063 199.981L159.585 205.25C158.978 205.856 158.471 206.364 157.303 206.364L158.118 194.8L179.161 175.786C180.076 174.97 178.963 174.518 177.739 175.334L151.725 191.714L140.526 188.209C138.09 187.448 138.046 185.773 141.033 184.604L184.838 167.728C186.866 166.968 188.641 168.18 187.979 171.278Z" fill="#EFFBFF"/>
<path d="M187.979 10.0081L180.528 45.149C179.966 47.6292 178.5 48.2463 176.416 47.0782L165.063 38.7117L159.585 43.9807C158.978 44.5869 158.471 45.0941 157.303 45.0941L158.118 33.5308L179.161 14.5164C180.076 13.7008 178.963 13.2488 177.739 14.0645L151.725 30.4444L140.526 26.9392C138.09 26.1786 138.046 24.5031 141.033 23.3348L184.838 6.4588C186.866 5.69827 188.641 6.9106 187.979 10.0081Z" fill="#EFFBFF"/>
<path d="M187.979 282.575L180.528 317.715C179.966 320.196 178.5 320.813 176.416 319.645L165.063 311.278L159.585 316.547C158.978 317.153 158.471 317.66 157.303 317.66L158.118 306.097L179.161 287.083C180.076 286.267 178.963 285.815 177.739 286.631L151.725 303.011L140.526 299.506C138.09 298.745 138.046 297.069 141.033 295.901L184.838 279.025C186.866 278.265 188.641 279.477 187.979 282.575Z" fill="#EFFBFF"/>
<path d="M187.979 112.219L180.528 147.36C179.966 149.84 178.5 150.457 176.416 149.289L165.063 140.923L159.585 146.192C158.978 146.798 158.471 147.305 157.303 147.305L158.118 135.742L179.161 116.727C180.076 115.912 178.963 115.46 177.739 116.275L151.725 132.655L140.526 129.15C138.09 128.39 138.046 126.714 141.033 125.546L184.838 108.67C186.866 107.909 188.641 109.122 187.979 112.219Z" fill="#EFFBFF"/>
<path d="M122.112 397.282L114.661 432.422C114.098 434.903 112.632 435.52 110.549 434.352L99.1955 425.985L93.7173 431.254C93.1113 431.86 92.6041 432.368 91.4356 432.368L92.2512 420.804L113.294 401.79C114.209 400.974 113.095 400.522 111.872 401.338L85.8581 417.718L74.6589 414.213C72.2228 413.452 72.1788 411.777 75.1659 410.608L118.971 393.732C120.999 392.972 122.773 394.184 122.112 397.282Z" fill="#EFFBFF"/>
<path d="M122.112 226.926L114.661 262.067C114.098 264.547 112.632 265.164 110.549 263.996L99.1955 255.63L93.7173 260.899C93.1113 261.505 92.6041 262.012 91.4356 262.012L92.2512 250.449L113.294 231.434C114.209 230.619 113.095 230.167 111.872 230.982L85.8581 247.362L74.6589 243.857C72.2228 243.097 72.1788 241.421 75.1659 240.253L118.971 223.377C120.999 222.616 122.773 223.829 122.112 226.926Z" fill="#EFFBFF"/>
<path d="M122.112 65.6565L114.661 100.797C114.098 103.278 112.632 103.895 110.549 102.727L99.1955 94.3601L93.7173 99.6291C93.1113 100.235 92.6041 100.743 91.4356 100.743L92.2512 89.1793L113.294 70.1648C114.209 69.3492 113.095 68.8972 111.872 69.7129L85.8581 86.0928L74.6589 82.5877C72.2228 81.827 72.1788 80.1515 75.1659 78.9832L118.971 62.1072C120.999 61.3467 122.773 62.559 122.112 65.6565Z" fill="#EFFBFF"/>
<path d="M122.112 341.629L114.661 376.77C114.098 379.25 112.632 379.867 110.549 378.699L99.1955 370.333L93.7173 375.602C93.1113 376.208 92.6041 376.715 91.4356 376.715L92.2512 365.152L113.294 346.137C114.209 345.322 113.095 344.87 111.872 345.686L85.8581 362.066L74.6589 358.56C72.2228 357.8 72.1788 356.124 75.1659 354.956L118.971 338.08C120.999 337.319 122.773 338.532 122.112 341.629Z" fill="#EFFBFF"/>
<path d="M122.112 171.278L114.661 206.419C114.098 208.899 112.632 209.516 110.549 208.348L99.1955 199.981L93.7173 205.25C93.1113 205.856 92.6041 206.364 91.4356 206.364L92.2512 194.8L113.294 175.786C114.209 174.97 113.095 174.518 111.872 175.334L85.8581 191.714L74.6589 188.209C72.2228 187.448 72.1788 185.773 75.1659 184.604L118.971 167.728C120.999 166.968 122.773 168.18 122.112 171.278Z" fill="#EFFBFF"/>
<path d="M122.112 10.0081L114.661 45.149C114.098 47.6292 112.632 48.2463 110.549 47.0782L99.1955 38.7117L93.7173 43.9807C93.1113 44.5869 92.6041 45.0941 91.4356 45.0941L92.2512 33.5308L113.294 14.5164C114.209 13.7008 113.095 13.2488 111.872 14.0645L85.8581 30.4444L74.6589 26.9392C72.2228 26.1786 72.1788 24.5031 75.1659 23.3348L118.971 6.4588C120.999 5.69827 122.773 6.9106 122.112 10.0081Z" fill="#EFFBFF"/>
<path d="M122.112 282.575L114.661 317.715C114.098 320.196 112.632 320.813 110.549 319.645L99.1955 311.278L93.7173 316.547C93.1113 317.153 92.6041 317.66 91.4356 317.66L92.2512 306.097L113.294 287.083C114.209 286.267 113.095 285.815 111.872 286.631L85.8581 303.011L74.6589 299.506C72.2228 298.745 72.1788 297.069 75.1659 295.901L118.971 279.025C120.999 278.265 122.773 279.477 122.112 282.575Z" fill="#EFFBFF"/>
<path d="M122.112 112.219L114.661 147.36C114.098 149.84 112.632 150.457 110.549 149.289L99.1955 140.923L93.7173 146.192C93.1113 146.798 92.6041 147.305 91.4356 147.305L92.2512 135.742L113.294 116.727C114.209 115.912 113.095 115.46 111.872 116.275L85.8581 132.655L74.6589 129.15C72.2228 128.39 72.1788 126.714 75.1659 125.546L118.971 108.67C120.999 107.909 122.773 109.122 122.112 112.219Z" fill="#EFFBFF"/>
<path d="M56.2371 397.282L48.7856 432.422C48.2235 434.903 46.7574 435.52 44.6739 434.352L33.3205 425.985L27.8423 431.254C27.2363 431.86 26.7291 432.368 25.5606 432.368L26.3762 420.804L47.4188 401.79C48.3337 400.974 47.2205 400.522 45.9968 401.338L19.9831 417.718L8.78388 414.213C6.34783 413.452 6.30382 411.777 9.29086 410.608L53.0956 393.732C55.1236 392.972 56.8984 394.184 56.2371 397.282Z" fill="#EFFBFF"/>
<path d="M56.2371 226.926L48.7856 262.067C48.2235 264.547 46.7574 265.164 44.6739 263.996L33.3205 255.63L27.8423 260.899C27.2363 261.505 26.7291 262.012 25.5606 262.012L26.3762 250.449L47.4188 231.434C48.3337 230.619 47.2205 230.167 45.9968 230.982L19.9831 247.362L8.78388 243.857C6.34783 243.097 6.30382 241.421 9.29086 240.253L53.0956 223.377C55.1236 222.616 56.8984 223.829 56.2371 226.926Z" fill="#EFFBFF"/>
<path d="M56.2371 65.6565L48.7856 100.797C48.2235 103.278 46.7574 103.895 44.6739 102.727L33.3205 94.3601L27.8423 99.6291C27.2363 100.235 26.7291 100.743 25.5606 100.743L26.3762 89.1793L47.4188 70.1648C48.3337 69.3492 47.2205 68.8972 45.9968 69.7129L19.9831 86.0928L8.78388 82.5877C6.34783 81.827 6.30382 80.1515 9.29086 78.9832L53.0956 62.1072C55.1236 61.3467 56.8984 62.559 56.2371 65.6565Z" fill="#EFFBFF"/>
<path d="M56.2371 341.629L48.7856 376.77C48.2235 379.25 46.7574 379.867 44.6739 378.699L33.3205 370.333L27.8423 375.602C27.2363 376.208 26.7291 376.715 25.5606 376.715L26.3762 365.152L47.4188 346.137C48.3337 345.322 47.2205 344.87 45.9968 345.686L19.9831 362.066L8.78388 358.56C6.34783 357.8 6.30382 356.124 9.29086 354.956L53.0956 338.08C55.1236 337.319 56.8984 338.532 56.2371 341.629Z" fill="#EFFBFF"/>
<path d="M56.2371 171.278L48.7856 206.419C48.2235 208.899 46.7574 209.516 44.6739 208.348L33.3205 199.981L27.8423 205.25C27.2363 205.856 26.7291 206.364 25.5606 206.364L26.3762 194.8L47.4188 175.786C48.3337 174.97 47.2205 174.518 45.9968 175.334L19.9831 191.714L8.78388 188.209C6.34783 187.448 6.30382 185.773 9.29086 184.604L53.0956 167.728C55.1236 166.968 56.8984 168.18 56.2371 171.278Z" fill="#EFFBFF"/>
<path d="M56.2371 10.0081L48.7856 45.149C48.2235 47.6292 46.7574 48.2463 44.6739 47.0782L33.3205 38.7117L27.8423 43.9807C27.2363 44.5869 26.7291 45.0941 25.5606 45.0941L26.3762 33.5308L47.4188 14.5164C48.3337 13.7008 47.2205 13.2488 45.9968 14.0645L19.9831 30.4444L8.78388 26.9392C6.34783 26.1786 6.30382 24.5031 9.29086 23.3348L53.0956 6.4588C55.1236 5.69827 56.8984 6.9106 56.2371 10.0081Z" fill="#EFFBFF"/>
<path d="M56.2371 282.575L48.7856 317.715C48.2235 320.196 46.7574 320.813 44.6739 319.645L33.3205 311.278L27.8423 316.547C27.2363 317.153 26.7291 317.66 25.5606 317.66L26.3762 306.097L47.4188 287.083C48.3337 286.267 47.2205 285.815 45.9968 286.631L19.9831 303.011L8.78388 299.506C6.34783 298.745 6.30382 297.069 9.29086 295.901L53.0956 279.025C55.1236 278.265 56.8984 279.477 56.2371 282.575Z" fill="#EFFBFF"/>
<path d="M56.2371 112.219L48.7856 147.36C48.2235 149.84 46.7574 150.457 44.6739 149.289L33.3205 140.923L27.8423 146.192C27.2363 146.798 26.7291 147.305 25.5606 147.305L26.3762 135.742L47.4188 116.727C48.3337 115.912 47.2205 115.46 45.9968 116.275L19.9831 132.655L8.78388 129.15C6.34783 128.39 6.30382 126.714 9.29086 125.546L53.0956 108.67C55.1236 107.909 56.8984 109.122 56.2371 112.219Z" fill="#EFFBFF"/>
<defs>
<linearGradient id="paint0_linear_4365_10261" x1="205" y1="-672.422" x2="197.5" y2="440.578" gradientUnits="userSpaceOnUse">
<stop stop-color="#F2FCFF"/>
<stop offset="0.904624" stop-color="#E3F7FE"/>
</linearGradient>
</defs>
</svg>
