<svg xmlns="http://www.w3.org/2000/svg" fill="none" viewBox="0 8 22.55 24">
<path d="M19.3017 8.05285C18.6528 7.94661 17.9879 8.0071 17.3683 8.22878C16.7486 8.45051 16.1941 8.82628 15.7558 9.32152C14.9192 10.2695 14.6589 11.5037 14.8598 12.7403C15.0418 13.8557 15.2831 14.9876 15.3375 16.0621C15.4135 17.6804 15.1699 19.2977 14.621 20.8198C14.1243 22.1971 13.4167 23.2651 11.9003 23.5015C11.7878 23.5194 11.3784 23.5322 11.2621 23.5385C11.1459 23.5449 10.7781 23.5207 10.6644 23.5028C9.14797 23.2664 8.43398 22.1984 7.93859 20.8121C7.38971 19.29 7.14611 17.6727 7.22208 16.0544C7.27644 14.9838 7.51781 13.8506 7.69978 12.7327C7.9007 11.496 7.64038 10.2618 6.80382 9.31383C6.3641 8.81899 5.80819 8.44405 5.18737 8.22364C4.56652 8.00328 3.90079 7.94455 3.25158 8.05285C1.30677 8.37357 0.0114866 10.1187 0.000113386 11.9495C-0.00531392 12.6549 0.184194 13.3478 0.547293 13.9502C1.1526 14.9595 2.14585 15.6954 3.01274 16.4594C3.58646 16.9705 4.57846 18.4205 5.06499 19.9919C5.35941 20.9437 5.59953 21.9083 5.83707 22.8819C6.17069 24.2386 6.6294 27.2359 6.93143 28.5965C7.53423 31.3203 9.37921 31.9374 11.228 32H11.2937C13.1425 31.9374 15.0178 31.319 15.6205 28.5952C15.9213 27.2346 16.3788 24.2361 16.7149 22.8806C16.9538 21.9122 17.1926 20.9425 17.487 19.9906C17.9736 18.4192 18.9655 16.964 19.5393 16.4581C20.4061 15.6916 21.3981 14.9582 22.0047 13.949C22.3678 13.3466 22.5573 12.6536 22.5519 11.9482C22.5418 10.1136 21.2516 8.36715 19.3017 8.05285Z" fill="url(#paint0_linear_6_86)"/>
<defs>
<linearGradient id="paint0_linear_6_86" x1="2.20945" y1="10.8347" x2="45.5453" y2="39.2944" gradientUnits="userSpaceOnUse">
<stop stop-color="#11A97D"/>
<stop offset="1" stop-color="#6610F2"/>
</linearGradient>
</defs>
</svg>