<svg width="271" height="301" viewBox="0 0 271 301" fill="none" xmlns="http://www.w3.org/2000/svg">
<g opacity="0.85" filter="url(#filter0_f_4488_10877)">
<rect x="35.2188" y="62.4141" width="200" height="200" rx="15" fill="url(#paint0_linear_4488_10877)"/>
<rect x="35.2188" y="62.4141" width="200" height="200" rx="15" fill="white" fill-opacity="0.49"/>
</g>
<g filter="url(#filter1_d_4488_10877)">
<rect x="37.2891" y="64.9883" width="195.849" height="194.851" rx="12" fill="white"/>
</g>
<g filter="url(#filter2_f_4488_10877)">
<circle cx="136.635" cy="102.635" r="37.0879" fill="#696DE4" fill-opacity="0.61"/>
</g>
<g filter="url(#filter3_d_4488_10877)">
<path d="M174.607 123.477L146.222 107.091V59.4848L142.294 57.2171C142.105 57.1106 141.91 57.0075 141.71 56.9113L141.501 56.8219C141.384 56.767 141.264 56.712 141.14 56.6639L141.078 56.6398L140.937 56.5883C140.779 56.5299 140.614 56.4749 140.449 56.4233L140.281 56.3718L140.168 56.334L139.961 56.2859C139.801 56.2424 139.636 56.2012 139.467 56.1622L139.322 56.1313L139.123 56.0969L138.711 56.0213L138.539 55.9938C138.477 55.9938 138.415 55.9938 138.35 55.9732C138.219 55.9732 138.085 55.9389 137.951 55.9286L137.762 55.9045H137.584L137.178 55.8633H136.972H136.628V103.376V112.997C136.895 113.003 137.159 113.044 137.415 113.117L159.364 125.789C159.54 125.891 159.686 126.037 159.787 126.213C159.888 126.389 159.941 126.588 159.941 126.791C159.941 126.994 159.888 127.193 159.787 127.369C159.686 127.545 159.54 127.691 159.364 127.793L137.649 140.413C137.35 140.492 137.041 140.531 136.732 140.526H136.625V150.147C138.711 150.147 140.8 149.711 142.384 148.79L174.648 130.043C177.764 128.226 177.397 124.948 174.607 123.477Z" fill="url(#paint1_linear_4488_10877)"/>
</g>
<g filter="url(#filter4_bi_4488_10877)">
<path d="M136.621 55.8633H136.147H136.02C135.838 55.8633 135.659 55.8839 135.477 55.8976H135.26H135.157L134.996 55.9183C134.81 55.9389 134.625 55.9664 134.439 55.9938L134.305 56.0179H134.24C134.151 56.0179 134.068 56.0557 133.979 56.0729L133.539 56.2069L133.226 56.2928L132.814 56.4096L132.725 56.4371C132.56 56.4886 132.381 56.547 132.24 56.6089L132.172 56.6329C131.996 56.7017 131.828 56.7773 131.66 56.8529L131.512 56.9216C131.326 57.0109 131.144 57.1071 130.972 57.2068L126.976 59.5398V72.5416C126.991 72.6175 126.999 72.6945 127 72.7719V95.2708C126.999 95.347 126.991 95.4229 126.976 95.4976V106.96L98.5502 123.477C95.4338 125.288 95.4578 128.226 98.588 130.036L131.072 148.783C132.783 149.695 134.696 150.162 136.635 150.14V140.52C136.292 140.542 135.947 140.542 135.604 140.52L113.651 127.851C113.476 127.749 113.331 127.602 113.229 127.426C113.128 127.25 113.075 127.051 113.075 126.848C113.075 126.645 113.128 126.445 113.229 126.269C113.331 126.093 113.476 125.947 113.651 125.844L135.539 113.104C135.838 113.026 136.147 112.989 136.456 112.994H136.614V103.479L136.621 55.8633Z" fill="white" fill-opacity="0.3"/>
</g>
<g filter="url(#filter5_bi_4488_10877)">
<path d="M176.871 79.6802V79.7386C176.857 79.8141 176.839 79.8887 176.816 79.9619C176.795 80.0409 176.775 80.1234 176.747 80.2024C176.705 80.3199 176.656 80.4346 176.599 80.546L176.568 80.6044C176.502 80.7327 176.427 80.8566 176.345 80.9755L176.304 81.0305C176.225 81.1405 176.136 81.2504 176.043 81.3741L175.988 81.4359C175.885 81.5459 175.771 81.6559 175.644 81.7795C175.517 81.9032 175.483 81.9136 175.4 81.9823C175.318 82.051 175.256 82.1025 175.177 82.1575C175.098 82.2125 174.985 82.2881 174.888 82.3499C174.792 82.4118 174.692 82.4839 174.582 82.5458L142.318 101.296C142.147 101.396 141.975 101.488 141.779 101.578L141.635 101.65C141.467 101.726 141.296 101.798 141.119 101.866L141.054 101.894C140.865 101.966 140.673 102.031 140.477 102.093L140.068 102.21C139.961 102.238 139.858 102.268 139.752 102.292C139.645 102.317 139.456 102.358 139.308 102.389L138.985 102.454L138.851 102.475C138.666 102.506 138.484 102.533 138.298 102.554L138.133 102.574L137.814 102.602C137.632 102.602 137.47 102.629 137.271 102.636C137.158 102.636 137.041 102.636 136.927 102.636C136.814 102.636 136.67 102.636 136.539 102.636V150.242H137.013H137.14C137.322 150.242 137.484 150.221 137.683 150.204H137.9H138.003L138.164 150.183C138.35 150.159 138.535 150.135 138.721 150.104L138.855 150.084H138.92L139.181 150.029L139.621 149.933C139.728 149.909 139.831 149.878 139.934 149.85C140.037 149.823 140.212 149.775 140.346 149.73L140.435 149.706C140.6 149.651 140.779 149.596 140.92 149.534L140.989 149.507C141.164 149.438 141.332 149.366 141.501 149.287L141.648 149.218C141.834 149.129 142.016 149.036 142.188 148.936L174.452 130.186L174.548 130.128C174.624 130.083 174.686 130.035 174.754 129.99C174.823 129.945 174.954 129.863 175.043 129.798C175.132 129.732 175.194 129.681 175.266 129.622C175.338 129.564 175.438 129.488 175.514 129.42L175.562 129.378C175.665 129.282 175.761 129.186 175.85 129.086L175.902 129.025C175.957 128.966 176.012 128.904 176.06 128.842L176.166 128.698L176.204 128.643C176.27 128.55 176.328 128.458 176.383 128.365L176.431 128.272L176.462 128.214C176.51 128.114 176.558 128.011 176.596 127.911C176.594 127.894 176.594 127.877 176.596 127.86C176.623 127.781 176.644 127.702 176.665 127.623C176.685 127.544 176.699 127.516 176.709 127.461V127.396V127.341C176.728 127.227 176.739 127.112 176.74 126.997C176.742 126.974 176.742 126.951 176.74 126.929L176.874 79.3125C176.881 79.435 176.88 79.5578 176.871 79.6802ZM167.15 122.548C167.15 122.76 167.094 122.969 166.988 123.154C166.882 123.338 166.729 123.492 166.546 123.599L147.991 134.388C147.806 134.496 147.595 134.554 147.38 134.555C147.166 134.555 146.954 134.499 146.768 134.392C146.582 134.285 146.427 134.131 146.32 133.945C146.213 133.759 146.156 133.548 146.156 133.333V110.838C146.157 110.623 146.214 110.413 146.321 110.227C146.428 110.041 146.582 109.887 146.768 109.78C149.541 108.189 160.907 101.595 165.398 98.9905C165.584 98.8829 165.794 98.8262 166.009 98.8261C166.223 98.8259 166.434 98.8824 166.62 98.9897C166.806 99.0971 166.96 99.2515 167.067 99.4374C167.174 99.6234 167.23 99.8342 167.229 100.049L167.15 122.548Z" fill="#FBFFFE" fill-opacity="0.3"/>
</g>
<g filter="url(#filter6_bi_4488_10877)">
<path d="M174.528 75.9687L142.054 57.2357C138.917 55.4214 133.853 55.4214 130.736 57.2357L98.4721 75.9687C95.3556 77.7795 95.3797 80.7139 98.5099 82.5246L130.984 101.275C134.121 103.086 139.189 103.086 142.302 101.275L174.566 82.5246C177.682 80.7139 177.665 77.7795 174.528 75.9687ZM159.282 80.2809L137.588 92.8979C137.289 92.9786 136.98 93.0168 136.67 93.0113C136.35 93.0169 136.031 92.9764 135.722 92.8911L113.759 80.2191C113.583 80.1173 113.438 79.9712 113.337 79.7954C113.235 79.6196 113.182 79.4203 113.182 79.2175C113.182 79.0146 113.235 78.8153 113.337 78.6396C113.438 78.4638 113.583 78.3177 113.759 78.2159L135.474 65.5955C135.771 65.5147 136.078 65.4766 136.385 65.4821C136.705 65.4765 137.025 65.517 137.333 65.6023L159.279 78.2743C159.455 78.3756 159.602 78.5215 159.704 78.6975C159.806 78.8734 159.86 79.0732 159.861 79.2766C159.861 79.4801 159.808 79.68 159.706 79.8563C159.605 80.0326 159.459 80.1791 159.282 80.2809Z" fill="url(#paint2_linear_4488_10877)"/>
</g>
<g filter="url(#filter7_bi_4488_10877)">
<path d="M167.324 55.2098L141.088 40.0977C138.553 38.6341 134.462 38.6341 131.944 40.0977L105.877 55.2098C103.359 56.6706 103.379 59.0377 105.908 60.4985L132.144 75.6245C134.678 77.0853 138.773 77.0853 141.288 75.6245L167.354 60.4985C169.872 59.0377 169.858 56.6706 167.324 55.2098Z" fill="url(#paint3_linear_4488_10877)"/>
</g>
<g filter="url(#filter8_d_4488_10877)">
<path d="M136.475 102.63H136.107L135.701 102.595C135.578 102.595 135.454 102.585 135.33 102.564L134.932 102.52C134.812 102.52 134.691 102.489 134.588 102.468C134.485 102.448 134.303 102.423 134.162 102.396L133.819 102.327C133.65 102.293 133.475 102.252 133.32 102.207L133.001 102.121L132.832 102.07C132.667 102.018 132.489 101.963 132.344 101.901L132.207 101.853L131.781 101.671L131.575 101.582C131.372 101.485 131.176 101.382 130.987 101.276L98.5136 82.529C96.9365 81.6357 96.1462 80.4228 96.1496 79.2305L96.0156 126.843C96.0156 128.039 96.799 129.248 98.3796 130.145L130.853 148.892C131.043 149.002 131.239 149.105 131.441 149.201L131.647 149.291L131.991 149.449L132.056 149.469C132.101 149.49 132.145 149.504 132.193 149.521C132.351 149.579 132.516 149.634 132.681 149.689L132.85 149.741L132.963 149.775C133.028 149.796 133.1 149.809 133.169 149.827L133.664 149.947L133.798 149.981L133.997 150.016L134.42 150.088L134.592 150.119L134.781 150.139L135.179 150.184C135.241 150.184 135.306 150.201 135.372 150.205C135.437 150.208 135.488 150.205 135.55 150.205C135.684 150.205 135.818 150.222 135.956 150.225C136.021 150.225 136.09 150.225 136.158 150.225H136.502V102.63C136.493 102.63 136.484 102.63 136.475 102.63ZM126.902 132.98C126.903 133.236 126.836 133.488 126.708 133.71C126.581 133.932 126.397 134.116 126.175 134.244C125.953 134.372 125.701 134.439 125.445 134.439C125.189 134.438 124.938 134.37 124.717 134.241L106.379 123.655C106.153 123.528 105.966 123.344 105.836 123.121C105.705 122.898 105.636 122.645 105.636 122.387L105.698 100.314C105.699 100.059 105.766 99.808 105.894 99.5871C106.022 99.3662 106.205 99.1828 106.426 99.0551C106.647 98.9274 106.898 98.86 107.153 98.8596C107.408 98.8592 107.659 98.9258 107.88 99.0528C112.536 101.74 123.263 107.928 126.16 109.588C126.383 109.713 126.569 109.895 126.699 110.115C126.83 110.335 126.899 110.586 126.902 110.842V132.98Z" fill="url(#paint4_linear_4488_10877)" shape-rendering="crispEdges"/>
</g>
<g filter="url(#filter9_bi_4488_10877)">
<path d="M75.9182 96.3436L76.1466 126.62C76.1655 129.546 78.2345 133.077 80.7703 134.509L106.989 149.356C109.522 150.789 111.554 149.576 111.536 146.655L111.32 116.372C111.298 113.447 109.228 109.914 106.696 108.483L80.4656 93.6431C77.9322 92.2095 75.8969 93.4184 75.9182 96.3436Z" fill="url(#paint5_linear_4488_10877)"/>
</g>
<g filter="url(#filter10_bi_4488_10877)">
<path d="M194.519 96.3436L194.291 126.62C194.272 129.546 192.203 133.077 189.667 134.509L163.449 149.356C160.915 150.789 158.883 149.576 158.902 146.655L159.118 116.372C159.139 113.447 161.21 109.914 163.742 108.483L189.972 93.6431C192.505 92.2095 194.541 93.4184 194.519 96.3436Z" fill="url(#paint6_linear_4488_10877)"/>
</g>
<path d="M91.9858 186.9L87.6658 194.586V199.5H85.1998V194.586L80.8978 186.9H83.7058L86.4418 192.156L89.1778 186.9H91.9858ZM98.9605 198.384C98.0365 199.296 96.9085 199.752 95.5765 199.752C94.2445 199.752 93.1165 199.296 92.1925 198.384C91.2805 197.46 90.8245 196.332 90.8245 195C90.8245 193.668 91.2805 192.546 92.1925 191.634C93.1165 190.71 94.2445 190.248 95.5765 190.248C96.9085 190.248 98.0365 190.71 98.9605 191.634C99.8845 192.546 100.346 193.668 100.346 195C100.346 196.332 99.8845 197.46 98.9605 198.384ZM93.8305 196.782C94.2985 197.25 94.8805 197.484 95.5765 197.484C96.2725 197.484 96.8545 197.25 97.3225 196.782C97.7905 196.314 98.0245 195.72 98.0245 195C98.0245 194.28 97.7905 193.686 97.3225 193.218C96.8545 192.75 96.2725 192.516 95.5765 192.516C94.8805 192.516 94.2985 192.75 93.8305 193.218C93.3745 193.686 93.1465 194.28 93.1465 195C93.1465 195.72 93.3745 196.314 93.8305 196.782ZM107.92 190.5H110.242V199.5H107.92V198.492C107.356 199.332 106.462 199.752 105.238 199.752C104.254 199.752 103.438 199.422 102.79 198.762C102.154 198.102 101.836 197.19 101.836 196.026V190.5H104.158V195.738C104.158 196.338 104.32 196.8 104.644 197.124C104.968 197.436 105.4 197.592 105.94 197.592C106.54 197.592 107.02 197.406 107.38 197.034C107.74 196.662 107.92 196.104 107.92 195.36V190.5ZM114.691 192.048C114.907 191.472 115.261 191.04 115.753 190.752C116.257 190.464 116.815 190.32 117.427 190.32V192.912C116.719 192.828 116.083 192.972 115.519 193.344C114.967 193.716 114.691 194.334 114.691 195.198V199.5H112.369V190.5H114.691V192.048ZM130.179 190.5H132.447V199.068C132.447 200.46 131.985 201.522 131.061 202.254C130.149 202.986 129.045 203.352 127.749 203.352C126.777 203.352 125.919 203.166 125.175 202.794C124.443 202.422 123.879 201.876 123.483 201.156L125.463 200.022C125.919 200.862 126.705 201.282 127.821 201.282C128.553 201.282 129.129 201.09 129.549 200.706C129.969 200.322 130.179 199.776 130.179 199.068V198.096C129.495 199.008 128.535 199.464 127.299 199.464C126.027 199.464 124.959 199.02 124.095 198.132C123.243 197.232 122.817 196.14 122.817 194.856C122.817 193.584 123.249 192.498 124.113 191.598C124.977 190.698 126.039 190.248 127.299 190.248C128.535 190.248 129.495 190.704 130.179 191.616V190.5ZM125.841 196.638C126.321 197.094 126.927 197.322 127.659 197.322C128.391 197.322 128.991 197.094 129.459 196.638C129.939 196.17 130.179 195.576 130.179 194.856C130.179 194.148 129.939 193.566 129.459 193.11C128.991 192.642 128.391 192.408 127.659 192.408C126.927 192.408 126.321 192.642 125.841 193.11C125.373 193.566 125.139 194.148 125.139 194.856C125.139 195.576 125.373 196.17 125.841 196.638ZM141.392 190.5H143.714V199.5H141.392V198.438C140.696 199.314 139.718 199.752 138.458 199.752C137.258 199.752 136.226 199.296 135.362 198.384C134.51 197.46 134.084 196.332 134.084 195C134.084 193.668 134.51 192.546 135.362 191.634C136.226 190.71 137.258 190.248 138.458 190.248C139.718 190.248 140.696 190.686 141.392 191.562V190.5ZM137.108 196.836C137.576 197.304 138.17 197.538 138.89 197.538C139.61 197.538 140.204 197.304 140.672 196.836C141.152 196.356 141.392 195.744 141.392 195C141.392 194.256 141.152 193.65 140.672 193.182C140.204 192.702 139.61 192.462 138.89 192.462C138.17 192.462 137.576 192.702 137.108 193.182C136.64 193.65 136.406 194.256 136.406 195C136.406 195.744 136.64 196.356 137.108 196.836ZM150.968 192.732H148.934V196.476C148.934 196.788 149.012 197.016 149.168 197.16C149.324 197.304 149.552 197.388 149.852 197.412C150.152 197.424 150.524 197.418 150.968 197.394V199.5C149.372 199.68 148.244 199.53 147.584 199.05C146.936 198.57 146.612 197.712 146.612 196.476V192.732H145.046V190.5H146.612V188.682L148.934 187.98V190.5H150.968V192.732ZM154.286 195.954C154.598 197.082 155.444 197.646 156.824 197.646C157.712 197.646 158.384 197.346 158.84 196.746L160.712 197.826C159.824 199.11 158.516 199.752 156.788 199.752C155.3 199.752 154.106 199.302 153.206 198.402C152.306 197.502 151.856 196.368 151.856 195C151.856 193.644 152.3 192.516 153.188 191.616C154.076 190.704 155.216 190.248 156.608 190.248C157.928 190.248 159.014 190.704 159.866 191.616C160.73 192.528 161.162 193.656 161.162 195C161.162 195.3 161.132 195.618 161.072 195.954H154.286ZM154.25 194.154H158.84C158.708 193.542 158.432 193.086 158.012 192.786C157.604 192.486 157.136 192.336 156.608 192.336C155.984 192.336 155.468 192.498 155.06 192.822C154.652 193.134 154.382 193.578 154.25 194.154ZM172.565 190.5H175.031L172.169 199.5H169.955L168.299 194.046L166.643 199.5H164.429L161.567 190.5H164.033L165.563 196.026L167.201 190.5H169.397L171.035 196.044L172.565 190.5ZM182.771 190.5H185.093V199.5H182.771V198.438C182.075 199.314 181.097 199.752 179.837 199.752C178.637 199.752 177.605 199.296 176.741 198.384C175.889 197.46 175.463 196.332 175.463 195C175.463 193.668 175.889 192.546 176.741 191.634C177.605 190.71 178.637 190.248 179.837 190.248C181.097 190.248 182.075 190.686 182.771 191.562V190.5ZM178.487 196.836C178.955 197.304 179.549 197.538 180.269 197.538C180.989 197.538 181.583 197.304 182.051 196.836C182.531 196.356 182.771 195.744 182.771 195C182.771 194.256 182.531 193.65 182.051 193.182C181.583 192.702 180.989 192.462 180.269 192.462C179.549 192.462 178.955 192.702 178.487 193.182C178.019 193.65 177.785 194.256 177.785 195C177.785 195.744 178.019 196.356 178.487 196.836ZM193.067 190.5H195.551L192.275 199.5C191.807 200.796 191.183 201.732 190.403 202.308C189.635 202.896 188.675 203.16 187.523 203.1V200.94C188.147 200.952 188.639 200.82 188.999 200.544C189.371 200.268 189.665 199.824 189.881 199.212L186.191 190.5H188.729L191.069 196.548L193.067 190.5ZM109.36 217.732H107.326V221.476C107.326 221.788 107.404 222.016 107.56 222.16C107.716 222.304 107.944 222.388 108.244 222.412C108.544 222.424 108.916 222.418 109.36 222.394V224.5C107.764 224.68 106.636 224.53 105.976 224.05C105.328 223.57 105.004 222.712 105.004 221.476V217.732H103.438V215.5H105.004V213.682L107.326 212.98V215.5H109.36V217.732ZM118.384 223.384C117.46 224.296 116.332 224.752 115 224.752C113.668 224.752 112.54 224.296 111.616 223.384C110.704 222.46 110.248 221.332 110.248 220C110.248 218.668 110.704 217.546 111.616 216.634C112.54 215.71 113.668 215.248 115 215.248C116.332 215.248 117.46 215.71 118.384 216.634C119.308 217.546 119.77 218.668 119.77 220C119.77 221.332 119.308 222.46 118.384 223.384ZM113.254 221.782C113.722 222.25 114.304 222.484 115 222.484C115.696 222.484 116.278 222.25 116.746 221.782C117.214 221.314 117.448 220.72 117.448 220C117.448 219.28 117.214 218.686 116.746 218.218C116.278 217.75 115.696 217.516 115 217.516C114.304 217.516 113.722 217.75 113.254 218.218C112.798 218.686 112.57 219.28 112.57 220C112.57 220.72 112.798 221.314 113.254 221.782ZM128.64 224.5L125.112 211.9H127.722L130.134 221.242L132.762 211.9H134.886L137.532 221.242L139.944 211.9H142.554L139.026 224.5H136.2L133.824 216.184L131.466 224.5H128.64ZM144.776 220.954C145.088 222.082 145.934 222.646 147.314 222.646C148.202 222.646 148.874 222.346 149.33 221.746L151.202 222.826C150.314 224.11 149.006 224.752 147.278 224.752C145.79 224.752 144.596 224.302 143.696 223.402C142.796 222.502 142.346 221.368 142.346 220C142.346 218.644 142.79 217.516 143.678 216.616C144.566 215.704 145.706 215.248 147.098 215.248C148.418 215.248 149.504 215.704 150.356 216.616C151.22 217.528 151.652 218.656 151.652 220C151.652 220.3 151.622 220.618 151.562 220.954H144.776ZM144.74 219.154H149.33C149.198 218.542 148.922 218.086 148.502 217.786C148.094 217.486 147.626 217.336 147.098 217.336C146.474 217.336 145.958 217.498 145.55 217.822C145.142 218.134 144.872 218.578 144.74 219.154ZM158.511 215.248C159.723 215.248 160.755 215.71 161.607 216.634C162.471 217.546 162.903 218.668 162.903 220C162.903 221.332 162.471 222.46 161.607 223.384C160.755 224.296 159.723 224.752 158.511 224.752C157.251 224.752 156.279 224.314 155.595 223.438V224.5H153.273V211.9H155.595V216.562C156.279 215.686 157.251 215.248 158.511 215.248ZM156.297 221.836C156.765 222.304 157.359 222.538 158.079 222.538C158.799 222.538 159.393 222.304 159.861 221.836C160.341 221.356 160.581 220.744 160.581 220C160.581 219.256 160.341 218.65 159.861 218.182C159.393 217.702 158.799 217.462 158.079 217.462C157.359 217.462 156.765 217.702 156.297 218.182C155.829 218.65 155.595 219.256 155.595 220C155.595 220.744 155.829 221.356 156.297 221.836ZM169.833 217.012C170.685 217.264 171.375 217.708 171.903 218.344C172.443 218.968 172.713 219.724 172.713 220.612C172.713 221.908 172.275 222.922 171.399 223.654C170.535 224.386 169.473 224.752 168.213 224.752C167.229 224.752 166.347 224.53 165.567 224.086C164.799 223.63 164.241 222.964 163.893 222.088L166.017 220.864C166.329 221.836 167.061 222.322 168.213 222.322C168.849 222.322 169.341 222.172 169.689 221.872C170.049 221.56 170.229 221.14 170.229 220.612C170.229 220.096 170.049 219.682 169.689 219.37C169.341 219.058 168.849 218.902 168.213 218.902H167.673L166.719 217.462L169.203 214.222H164.271V211.9H172.191V213.952L169.833 217.012Z" fill="#594F77"/>
<defs>
<filter id="filter0_f_4488_10877" x="33.2188" y="60.4141" width="204" height="204" filterUnits="userSpaceOnUse" color-interpolation-filters="sRGB">
<feFlood flood-opacity="0" result="BackgroundImageFix"/>
<feBlend mode="normal" in="SourceGraphic" in2="BackgroundImageFix" result="shape"/>
<feGaussianBlur stdDeviation="1" result="effect1_foregroundBlur_4488_10877"/>
</filter>
<filter id="filter1_d_4488_10877" x="0.289062" y="31.9883" width="269.852" height="268.852" filterUnits="userSpaceOnUse" color-interpolation-filters="sRGB">
<feFlood flood-opacity="0" result="BackgroundImageFix"/>
<feColorMatrix in="SourceAlpha" type="matrix" values="0 0 0 0 0 0 0 0 0 0 0 0 0 0 0 0 0 0 127 0" result="hardAlpha"/>
<feOffset dy="4"/>
<feGaussianBlur stdDeviation="18.5"/>
<feComposite in2="hardAlpha" operator="out"/>
<feColorMatrix type="matrix" values="0 0 0 0 0.411765 0 0 0 0 0.427451 0 0 0 0 0.894118 0 0 0 0.32 0"/>
<feBlend mode="normal" in2="BackgroundImageFix" result="effect1_dropShadow_4488_10877"/>
<feBlend mode="normal" in="SourceGraphic" in2="effect1_dropShadow_4488_10877" result="shape"/>
</filter>
<filter id="filter2_f_4488_10877" x="34.5469" y="0.546875" width="204.18" height="204.176" filterUnits="userSpaceOnUse" color-interpolation-filters="sRGB">
<feFlood flood-opacity="0" result="BackgroundImageFix"/>
<feBlend mode="normal" in="SourceGraphic" in2="BackgroundImageFix" result="shape"/>
<feGaussianBlur stdDeviation="32.5" result="effect1_foregroundBlur_4488_10877"/>
</filter>
<filter id="filter3_d_4488_10877" x="128.411" y="50.6363" width="67.1005" height="121.167" filterUnits="userSpaceOnUse" color-interpolation-filters="sRGB">
<feFlood flood-opacity="0" result="BackgroundImageFix"/>
<feColorMatrix in="SourceAlpha" type="matrix" values="0 0 0 0 0 0 0 0 0 0 0 0 0 0 0 0 0 0 127 0" result="hardAlpha"/>
<feOffset dx="5.227" dy="8.21385"/>
<feGaussianBlur stdDeviation="6.72043"/>
<feComposite in2="hardAlpha" operator="out"/>
<feColorMatrix type="matrix" values="0 0 0 0 0.67451 0 0 0 0 0.533333 0 0 0 0 0.952941 0 0 0 0.55 0"/>
<feBlend mode="normal" in2="BackgroundImageFix" result="effect1_dropShadow_4488_10877"/>
<feBlend mode="normal" in="SourceGraphic" in2="effect1_dropShadow_4488_10877" result="shape"/>
</filter>
<filter id="filter4_bi_4488_10877" x="86.2266" y="45.8633" width="60.4062" height="114.277" filterUnits="userSpaceOnUse" color-interpolation-filters="sRGB">
<feFlood flood-opacity="0" result="BackgroundImageFix"/>
<feGaussianBlur in="BackgroundImage" stdDeviation="5"/>
<feComposite in2="SourceAlpha" operator="in" result="effect1_backgroundBlur_4488_10877"/>
<feBlend mode="normal" in="SourceGraphic" in2="effect1_backgroundBlur_4488_10877" result="shape"/>
<feColorMatrix in="SourceAlpha" type="matrix" values="0 0 0 0 0 0 0 0 0 0 0 0 0 0 0 0 0 0 127 0" result="hardAlpha"/>
<feOffset dx="1" dy="1"/>
<feGaussianBlur stdDeviation="15"/>
<feComposite in2="hardAlpha" operator="arithmetic" k2="-1" k3="1"/>
<feColorMatrix type="matrix" values="0 0 0 0 1 0 0 0 0 1 0 0 0 0 1 0 0 0 1 0"/>
<feBlend mode="normal" in2="shape" result="effect2_innerShadow_4488_10877"/>
</filter>
<filter id="filter5_bi_4488_10877" x="126.539" y="69.3125" width="60.3359" height="90.9297" filterUnits="userSpaceOnUse" color-interpolation-filters="sRGB">
<feFlood flood-opacity="0" result="BackgroundImageFix"/>
<feGaussianBlur in="BackgroundImage" stdDeviation="5"/>
<feComposite in2="SourceAlpha" operator="in" result="effect1_backgroundBlur_4488_10877"/>
<feBlend mode="normal" in="SourceGraphic" in2="effect1_backgroundBlur_4488_10877" result="shape"/>
<feColorMatrix in="SourceAlpha" type="matrix" values="0 0 0 0 0 0 0 0 0 0 0 0 0 0 0 0 0 0 127 0" result="hardAlpha"/>
<feOffset dx="1" dy="1"/>
<feGaussianBlur stdDeviation="15"/>
<feComposite in2="hardAlpha" operator="arithmetic" k2="-1" k3="1"/>
<feColorMatrix type="matrix" values="0 0 0 0 1 0 0 0 0 1 0 0 0 0 1 0 0 0 1 0"/>
<feBlend mode="normal" in2="shape" result="effect2_innerShadow_4488_10877"/>
</filter>
<filter id="filter6_bi_4488_10877" x="86.1484" y="45.875" width="100.742" height="66.7578" filterUnits="userSpaceOnUse" color-interpolation-filters="sRGB">
<feFlood flood-opacity="0" result="BackgroundImageFix"/>
<feGaussianBlur in="BackgroundImage" stdDeviation="5"/>
<feComposite in2="SourceAlpha" operator="in" result="effect1_backgroundBlur_4488_10877"/>
<feBlend mode="normal" in="SourceGraphic" in2="effect1_backgroundBlur_4488_10877" result="shape"/>
<feColorMatrix in="SourceAlpha" type="matrix" values="0 0 0 0 0 0 0 0 0 0 0 0 0 0 0 0 0 0 127 0" result="hardAlpha"/>
<feOffset dx="4" dy="4"/>
<feGaussianBlur stdDeviation="15"/>
<feComposite in2="hardAlpha" operator="arithmetic" k2="-1" k3="1"/>
<feColorMatrix type="matrix" values="0 0 0 0 1 0 0 0 0 1 0 0 0 0 1 0 0 0 0.8 0"/>
<feBlend mode="normal" in2="shape" result="effect2_innerShadow_4488_10877"/>
</filter>
<filter id="filter7_bi_4488_10877" x="94" y="29" width="85.2344" height="57.7188" filterUnits="userSpaceOnUse" color-interpolation-filters="sRGB">
<feFlood flood-opacity="0" result="BackgroundImageFix"/>
<feGaussianBlur in="BackgroundImage" stdDeviation="5"/>
<feComposite in2="SourceAlpha" operator="in" result="effect1_backgroundBlur_4488_10877"/>
<feBlend mode="normal" in="SourceGraphic" in2="effect1_backgroundBlur_4488_10877" result="shape"/>
<feColorMatrix in="SourceAlpha" type="matrix" values="0 0 0 0 0 0 0 0 0 0 0 0 0 0 0 0 0 0 127 0" result="hardAlpha"/>
<feOffset dx="4" dy="4"/>
<feGaussianBlur stdDeviation="15"/>
<feComposite in2="hardAlpha" operator="arithmetic" k2="-1" k3="1"/>
<feColorMatrix type="matrix" values="0 0 0 0 1 0 0 0 0 1 0 0 0 0 1 0 0 0 0.8 0"/>
<feBlend mode="normal" in2="shape" result="effect2_innerShadow_4488_10877"/>
</filter>
<filter id="filter8_d_4488_10877" x="87.8018" y="74.0035" width="67.3661" height="97.8778" filterUnits="userSpaceOnUse" color-interpolation-filters="sRGB">
<feFlood flood-opacity="0" result="BackgroundImageFix"/>
<feColorMatrix in="SourceAlpha" type="matrix" values="0 0 0 0 0 0 0 0 0 0 0 0 0 0 0 0 0 0 127 0" result="hardAlpha"/>
<feOffset dx="5.227" dy="8.21385"/>
<feGaussianBlur stdDeviation="6.72043"/>
<feComposite in2="hardAlpha" operator="out"/>
<feColorMatrix type="matrix" values="0 0 0 0 0.67451 0 0 0 0 0.533333 0 0 0 0 0.952941 0 0 0 0.55 0"/>
<feBlend mode="normal" in2="BackgroundImageFix" result="effect1_dropShadow_4488_10877"/>
<feBlend mode="normal" in="SourceGraphic" in2="effect1_dropShadow_4488_10877" result="shape"/>
</filter>
<filter id="filter9_bi_4488_10877" x="65.9219" y="83.0391" width="55.6172" height="76.918" filterUnits="userSpaceOnUse" color-interpolation-filters="sRGB">
<feFlood flood-opacity="0" result="BackgroundImageFix"/>
<feGaussianBlur in="BackgroundImage" stdDeviation="5"/>
<feComposite in2="SourceAlpha" operator="in" result="effect1_backgroundBlur_4488_10877"/>
<feBlend mode="normal" in="SourceGraphic" in2="effect1_backgroundBlur_4488_10877" result="shape"/>
<feColorMatrix in="SourceAlpha" type="matrix" values="0 0 0 0 0 0 0 0 0 0 0 0 0 0 0 0 0 0 127 0" result="hardAlpha"/>
<feOffset dx="4" dy="4"/>
<feGaussianBlur stdDeviation="15"/>
<feComposite in2="hardAlpha" operator="arithmetic" k2="-1" k3="1"/>
<feColorMatrix type="matrix" values="0 0 0 0 1 0 0 0 0 1 0 0 0 0 1 0 0 0 0.8 0"/>
<feBlend mode="normal" in2="shape" result="effect2_innerShadow_4488_10877"/>
</filter>
<filter id="filter10_bi_4488_10877" x="148.898" y="83.0391" width="55.6172" height="76.918" filterUnits="userSpaceOnUse" color-interpolation-filters="sRGB">
<feFlood flood-opacity="0" result="BackgroundImageFix"/>
<feGaussianBlur in="BackgroundImage" stdDeviation="5"/>
<feComposite in2="SourceAlpha" operator="in" result="effect1_backgroundBlur_4488_10877"/>
<feBlend mode="normal" in="SourceGraphic" in2="effect1_backgroundBlur_4488_10877" result="shape"/>
<feColorMatrix in="SourceAlpha" type="matrix" values="0 0 0 0 0 0 0 0 0 0 0 0 0 0 0 0 0 0 127 0" result="hardAlpha"/>
<feOffset dx="4" dy="4"/>
<feGaussianBlur stdDeviation="15"/>
<feComposite in2="hardAlpha" operator="arithmetic" k2="-1" k3="1"/>
<feColorMatrix type="matrix" values="0 0 0 0 1 0 0 0 0 1 0 0 0 0 1 0 0 0 0.8 0"/>
<feBlend mode="normal" in2="shape" result="effect2_innerShadow_4488_10877"/>
</filter>
<linearGradient id="paint0_linear_4488_10877" x1="46.3229" y1="-120.443" x2="322.138" y2="-106.04" gradientUnits="userSpaceOnUse">
<stop stop-color="#579AFF"/>
<stop offset="1" stop-color="#EA93FF"/>
</linearGradient>
<linearGradient id="paint1_linear_4488_10877" x1="156.735" y1="55.8633" x2="227.834" y2="108.47" gradientUnits="userSpaceOnUse">
<stop stop-color="#806BBC"/>
<stop offset="1" stop-color="#784CB0"/>
</linearGradient>
<linearGradient id="paint2_linear_4488_10877" x1="136.52" y1="55.875" x2="158.672" y2="122.224" gradientUnits="userSpaceOnUse">
<stop stop-color="#F3B998"/>
<stop offset="1" stop-color="#F2BA66" stop-opacity="0.24"/>
</linearGradient>
<linearGradient id="paint3_linear_4488_10877" x1="136.617" y1="39" x2="154.465" y2="92.5399" gradientUnits="userSpaceOnUse">
<stop stop-color="#F3B998"/>
<stop offset="1" stop-color="#F2BA66" stop-opacity="0.24"/>
</linearGradient>
<linearGradient id="paint4_linear_4488_10877" x1="116.259" y1="79.2305" x2="172.24" y2="134.604" gradientUnits="userSpaceOnUse">
<stop stop-color="#F3B998"/>
<stop offset="1" stop-color="#F2BA66" stop-opacity="0.24"/>
</linearGradient>
<linearGradient id="paint5_linear_4488_10877" x1="77.4604" y1="131.032" x2="114.626" y2="88.5609" gradientUnits="userSpaceOnUse">
<stop stop-color="#F3B998"/>
<stop offset="1" stop-color="#F2BA66" stop-opacity="0.24"/>
</linearGradient>
<linearGradient id="paint6_linear_4488_10877" x1="192.977" y1="131.032" x2="155.811" y2="88.5609" gradientUnits="userSpaceOnUse">
<stop stop-color="#F3B998"/>
<stop offset="1" stop-color="#F2BA66" stop-opacity="0.24"/>
</linearGradient>
</defs>
</svg>
