<svg width="361" height="404" viewBox="0 0 361 404" fill="none" xmlns="http://www.w3.org/2000/svg">
<g opacity="0.85" filter="url(#filter0_f_4930_13193)">
<rect x="16" y="95.5" width="327.938" height="270.5" rx="15" fill="url(#paint0_linear_4930_13193)"/>
<rect x="16" y="95.5" width="327.938" height="270.5" rx="15" fill="white" fill-opacity="0.49"/>
</g>
<g filter="url(#filter1_d_4930_13193)">
<rect x="19.3984" y="98.9844" width="321.132" height="263.535" rx="12" fill="white"/>
</g>
<g filter="url(#filter2_f_4930_13193)">
<circle cx="182.774" cy="132.192" r="66.6258" fill="#696DE4" fill-opacity="0.61"/>
</g>
<g filter="url(#filter3_d_4930_13193)">
<path d="M250.989 169.635L199.998 140.198V54.6777L192.942 50.6039C192.603 50.4125 192.251 50.2273 191.893 50.0545L191.517 49.894C191.307 49.7953 191.091 49.6965 190.869 49.6101L190.757 49.5669L190.504 49.4743C190.22 49.3693 189.924 49.2706 189.628 49.178L189.325 49.0854L189.122 49.0175L188.751 48.9311C188.463 48.8529 188.167 48.7788 187.862 48.7089L187.603 48.6533L187.245 48.5916L186.505 48.4558L186.196 48.4064C186.085 48.4064 185.974 48.4064 185.856 48.3694C185.622 48.3694 185.381 48.3077 185.14 48.2892L184.801 48.2459H184.48L183.752 48.1719H183.381H182.764V133.526V150.809C183.242 150.82 183.718 150.893 184.177 151.025L223.608 173.789C223.923 173.972 224.184 174.234 224.366 174.55C224.548 174.866 224.644 175.224 224.644 175.588C224.644 175.953 224.548 176.311 224.366 176.627C224.184 176.942 223.923 177.205 223.608 177.388L184.597 200.059C184.06 200.202 183.505 200.271 182.949 200.263H182.758V217.546C186.505 217.546 190.257 216.762 193.103 215.108L251.063 181.431C256.662 178.165 256.001 172.277 250.989 169.635Z" fill="url(#paint1_linear_4930_13193)"/>
</g>
<g filter="url(#filter4_bi_4930_13193)">
<path d="M182.746 48.1719H181.894H181.665C181.338 48.1719 181.017 48.2089 180.69 48.2336H180.301H180.116L179.826 48.2706C179.493 48.3077 179.159 48.3571 178.826 48.4064L178.585 48.4496H178.468C178.308 48.4496 178.159 48.5175 177.999 48.5484L177.209 48.7891L176.647 48.9434L175.906 49.1533L175.746 49.2027C175.45 49.2953 175.129 49.4002 174.876 49.5113L174.752 49.5545C174.437 49.678 174.135 49.8138 173.832 49.9496L173.567 50.073C173.234 50.2335 172.907 50.4063 172.598 50.5853L165.419 54.7765V78.1333C165.446 78.2696 165.461 78.408 165.463 78.5469V118.965C165.46 119.101 165.446 119.238 165.419 119.372V139.964L114.354 169.635C108.755 172.888 108.799 178.165 114.422 181.418L172.777 215.096C175.851 216.734 179.287 217.572 182.77 217.534V200.251C182.154 200.291 181.535 200.291 180.919 200.251L141.482 177.493C141.167 177.309 140.906 177.046 140.724 176.73C140.542 176.413 140.447 176.055 140.447 175.69C140.447 175.325 140.542 174.967 140.724 174.651C140.906 174.335 141.167 174.071 141.482 173.888L180.801 151C181.339 150.861 181.894 150.795 182.449 150.803H182.733V133.711L182.746 48.1719Z" fill="white" fill-opacity="0.3"/>
</g>
<g filter="url(#filter5_bi_4930_13193)">
<path d="M255.055 90.9573V91.0623C255.031 91.198 254.998 91.332 254.956 91.4635C254.919 91.6055 254.882 91.7536 254.832 91.8956C254.757 92.1065 254.668 92.3127 254.567 92.5128L254.512 92.6177C254.392 92.8482 254.258 93.0708 254.11 93.2844L254.036 93.3831C253.894 93.5807 253.734 93.7782 253.567 94.0004L253.468 94.1115C253.283 94.309 253.08 94.5065 252.851 94.7288C252.623 94.951 252.561 94.9695 252.413 95.0929C252.265 95.2164 252.154 95.309 252.012 95.4077C251.87 95.5065 251.666 95.6423 251.493 95.7534C251.32 95.8645 251.141 95.9941 250.944 96.1052L192.984 129.789C192.675 129.968 192.367 130.134 192.015 130.295L191.755 130.424C191.455 130.56 191.146 130.69 190.83 130.813L190.712 130.863C190.373 130.992 190.027 131.11 189.675 131.221L188.941 131.431C188.749 131.48 188.564 131.536 188.373 131.579C188.182 131.622 187.842 131.696 187.577 131.752L186.996 131.869L186.756 131.906C186.422 131.961 186.095 132.011 185.762 132.048L185.466 132.085L184.892 132.134C184.564 132.134 184.274 132.184 183.916 132.196C183.713 132.196 183.503 132.196 183.299 132.196C183.095 132.196 182.836 132.196 182.602 132.196V217.716H183.453H183.682C184.009 217.716 184.299 217.679 184.657 217.649H185.046H185.231L185.521 217.611C185.854 217.568 186.188 217.525 186.521 217.469L186.762 217.432H186.879L187.348 217.334L188.138 217.161C188.33 217.118 188.515 217.062 188.7 217.013C188.885 216.963 189.2 216.877 189.441 216.797L189.601 216.753C189.897 216.655 190.218 216.556 190.472 216.445L190.595 216.395C190.91 216.272 191.212 216.142 191.515 216L191.78 215.877C192.113 215.717 192.441 215.55 192.749 215.371L250.709 181.687L250.882 181.582C251.018 181.502 251.129 181.416 251.252 181.336C251.376 181.255 251.61 181.107 251.771 180.99C251.931 180.873 252.043 180.78 252.172 180.675C252.302 180.57 252.481 180.434 252.617 180.311L252.703 180.237C252.888 180.064 253.061 179.891 253.221 179.712L253.314 179.601C253.413 179.496 253.512 179.385 253.598 179.274L253.789 179.015L253.857 178.916C253.975 178.749 254.079 178.583 254.178 178.416L254.265 178.249L254.32 178.144C254.407 177.965 254.493 177.78 254.561 177.601C254.558 177.57 254.558 177.539 254.561 177.509C254.61 177.367 254.647 177.225 254.684 177.083C254.721 176.941 254.746 176.891 254.765 176.793V176.675V176.576C254.799 176.372 254.817 176.166 254.82 175.959C254.823 175.918 254.823 175.877 254.82 175.836L255.061 90.2969C255.074 90.5169 255.072 90.7376 255.055 90.9573ZM237.593 167.966C237.592 168.348 237.491 168.723 237.301 169.055C237.11 169.386 236.836 169.662 236.506 169.855L203.175 189.236C202.841 189.431 202.463 189.534 202.077 189.535C201.691 189.537 201.312 189.436 200.978 189.244C200.643 189.051 200.365 188.774 200.172 188.44C199.979 188.106 199.878 187.727 199.878 187.341V146.93C199.879 146.545 199.981 146.166 200.174 145.833C200.367 145.499 200.644 145.222 200.977 145.029C205.958 142.171 226.377 130.326 234.445 125.647C234.778 125.454 235.157 125.352 235.542 125.352C235.927 125.351 236.306 125.453 236.64 125.646C236.973 125.838 237.25 126.116 237.443 126.45C237.635 126.784 237.736 127.163 237.735 127.548L237.593 167.966Z" fill="#FBFFFE" fill-opacity="0.3"/>
</g>
<g filter="url(#filter6_bi_4930_13193)">
<path d="M250.858 84.2923L192.521 50.6396C186.886 47.3805 177.787 47.3805 172.189 50.6396L114.229 84.2923C108.63 87.5452 108.674 92.8165 114.297 96.0695L172.633 129.753C178.269 133.006 187.373 133.006 192.966 129.753L250.926 96.0695C256.524 92.8165 256.493 87.5452 250.858 84.2923ZM223.47 92.0388L184.497 114.704C183.96 114.849 183.405 114.918 182.849 114.908C182.274 114.918 181.7 114.845 181.145 114.692L141.691 91.9277C141.375 91.7448 141.114 91.4824 140.932 91.1666C140.75 90.8508 140.654 90.4928 140.654 90.1284C140.654 89.764 140.75 89.406 140.932 89.0902C141.114 88.7744 141.375 88.512 141.691 88.3291L180.701 65.6574C181.234 65.5124 181.785 65.4438 182.337 65.4537C182.912 65.4437 183.486 65.5165 184.04 65.6697L223.464 88.434C223.781 88.6159 224.045 88.8781 224.228 89.1942C224.411 89.5103 224.508 89.8692 224.509 90.2346C224.51 90.6001 224.414 90.9593 224.232 91.276C224.049 91.5927 223.787 91.8558 223.47 92.0388Z" fill="url(#paint2_linear_4930_13193)"/>
</g>
<g filter="url(#filter7_bi_4930_13193)">
<path d="M237.913 46.9947L190.782 19.8469C186.229 17.2177 178.878 17.2177 174.355 19.8469L127.529 46.9947C123.006 49.6189 123.041 53.8713 127.584 56.4955L174.714 83.6683C179.267 86.2925 186.623 86.2925 191.141 83.6683L237.967 56.4955C242.491 53.8713 242.466 49.6189 237.913 46.9947Z" fill="url(#paint3_linear_4930_13193)"/>
</g>
<g filter="url(#filter8_d_4930_13193)">
<path d="M182.494 132.179H181.834L181.105 132.118C180.883 132.118 180.661 132.099 180.439 132.062L179.723 131.982C179.507 131.982 179.29 131.926 179.105 131.889C178.92 131.852 178.593 131.809 178.34 131.76L177.723 131.636C177.42 131.575 177.105 131.5 176.828 131.42L176.254 131.266L175.951 131.173C175.655 131.081 175.334 130.982 175.075 130.871L174.828 130.784L174.062 130.457L173.692 130.297C173.328 130.124 172.976 129.939 172.637 129.747L114.3 96.0702C111.467 94.4653 110.047 92.2864 110.053 90.1445L109.812 175.677C109.812 177.825 111.22 179.998 114.059 181.609L172.396 215.286C172.737 215.484 173.089 215.669 173.451 215.842L173.822 216.002L174.439 216.286L174.556 216.323C174.636 216.36 174.717 216.385 174.803 216.416C175.087 216.521 175.383 216.62 175.68 216.718L175.982 216.811L176.186 216.873C176.303 216.91 176.433 216.934 176.556 216.965L177.445 217.181L177.686 217.243L178.044 217.305L178.803 217.434L179.111 217.49L179.451 217.527L180.167 217.607C180.278 217.607 180.395 217.638 180.513 217.644C180.63 217.65 180.723 217.644 180.834 217.644C181.074 217.644 181.315 217.675 181.562 217.681C181.679 217.681 181.803 217.681 181.926 217.681H182.543V132.179C182.527 132.18 182.51 132.18 182.494 132.179ZM165.297 186.701C165.299 187.161 165.179 187.614 164.95 188.013C164.72 188.411 164.39 188.742 163.991 188.972C163.593 189.202 163.141 189.323 162.681 189.322C162.221 189.321 161.769 189.198 161.372 188.967L128.429 169.949C128.024 169.722 127.688 169.392 127.453 168.991C127.219 168.591 127.095 168.135 127.096 167.672L127.207 128.019C127.208 127.561 127.329 127.111 127.558 126.714C127.788 126.317 128.117 125.987 128.514 125.758C128.911 125.529 129.361 125.408 129.82 125.407C130.278 125.406 130.729 125.526 131.126 125.754C139.49 130.581 158.761 141.698 163.964 144.679C164.365 144.904 164.699 145.231 164.934 145.626C165.168 146.022 165.293 146.472 165.297 146.932V186.701Z" fill="url(#paint4_linear_4930_13193)" shape-rendering="crispEdges"/>
</g>
<g filter="url(#filter9_bi_4930_13193)">
<path d="M73.7032 120.888L74.1134 175.276C74.1474 180.534 77.8642 186.875 82.4196 189.448L129.519 216.12C134.07 218.695 137.721 216.515 137.688 211.269L137.299 156.867C137.261 151.612 133.542 145.266 128.993 142.695L81.8721 116.036C77.3211 113.461 73.6649 115.633 73.7032 120.888Z" fill="url(#paint5_linear_4930_13193)"/>
</g>
<g filter="url(#filter10_bi_4930_13193)">
<path d="M286.766 120.888L286.355 175.276C286.321 180.534 282.605 186.875 278.049 189.448L230.95 216.12C226.399 218.695 222.748 216.515 222.781 211.269L223.17 156.867C223.208 151.612 226.927 145.266 231.476 142.695L278.597 116.036C283.148 113.461 286.804 115.633 286.766 120.888Z" fill="url(#paint6_linear_4930_13193)"/>
</g>
<path d="M97.791 258.491L91.551 269.593V276.691H87.989V269.593L81.775 258.491H85.831L89.783 266.083L93.735 258.491H97.791ZM107.866 275.079C106.531 276.397 104.902 277.055 102.978 277.055C101.054 277.055 99.4243 276.397 98.0896 275.079C96.7723 273.745 96.1136 272.115 96.1136 270.191C96.1136 268.267 96.7723 266.647 98.0896 265.329C99.4243 263.995 101.054 263.327 102.978 263.327C104.902 263.327 106.531 263.995 107.866 265.329C109.2 266.647 109.868 268.267 109.868 270.191C109.868 272.115 109.2 273.745 107.866 275.079ZM100.456 272.765C101.132 273.441 101.972 273.779 102.978 273.779C103.983 273.779 104.824 273.441 105.5 272.765C106.176 272.089 106.514 271.231 106.514 270.191C106.514 269.151 106.176 268.293 105.5 267.617C104.824 266.941 103.983 266.603 102.978 266.603C101.972 266.603 101.132 266.941 100.456 267.617C99.797 268.293 99.4676 269.151 99.4676 270.191C99.4676 271.231 99.797 272.089 100.456 272.765ZM120.807 263.691H124.161V276.691H120.807V275.235C119.992 276.449 118.701 277.055 116.933 277.055C115.512 277.055 114.333 276.579 113.397 275.625C112.478 274.672 112.019 273.355 112.019 271.673V263.691H115.373V271.257C115.373 272.124 115.607 272.791 116.075 273.259C116.543 273.71 117.167 273.935 117.947 273.935C118.814 273.935 119.507 273.667 120.027 273.129C120.547 272.592 120.807 271.786 120.807 270.711V263.691ZM130.587 265.927C130.899 265.095 131.41 264.471 132.121 264.055C132.849 263.639 133.655 263.431 134.539 263.431V267.175C133.516 267.054 132.598 267.262 131.783 267.799C130.986 268.337 130.587 269.229 130.587 270.477V276.691H127.233V263.691H130.587V265.927ZM152.959 263.691H156.235V276.067C156.235 278.078 155.567 279.612 154.233 280.669C152.915 281.727 151.321 282.255 149.449 282.255C148.045 282.255 146.805 281.987 145.731 281.449C144.673 280.912 143.859 280.123 143.287 279.083L146.147 277.445C146.805 278.659 147.941 279.265 149.553 279.265C150.61 279.265 151.442 278.988 152.049 278.433C152.655 277.879 152.959 277.09 152.959 276.067V274.663C151.971 275.981 150.584 276.639 148.799 276.639C146.961 276.639 145.419 275.998 144.171 274.715C142.94 273.415 142.325 271.838 142.325 269.983C142.325 268.146 142.949 266.577 144.197 265.277C145.445 263.977 146.979 263.327 148.799 263.327C150.584 263.327 151.971 263.986 152.959 265.303V263.691ZM146.693 272.557C147.386 273.216 148.261 273.545 149.319 273.545C150.376 273.545 151.243 273.216 151.919 272.557C152.612 271.881 152.959 271.023 152.959 269.983C152.959 268.961 152.612 268.12 151.919 267.461C151.243 266.785 150.376 266.447 149.319 266.447C148.261 266.447 147.386 266.785 146.693 267.461C146.017 268.12 145.679 268.961 145.679 269.983C145.679 271.023 146.017 271.881 146.693 272.557ZM169.156 263.691H172.51V276.691H169.156V275.157C168.151 276.423 166.738 277.055 164.918 277.055C163.185 277.055 161.694 276.397 160.446 275.079C159.215 273.745 158.6 272.115 158.6 270.191C158.6 268.267 159.215 266.647 160.446 265.329C161.694 263.995 163.185 263.327 164.918 263.327C166.738 263.327 168.151 263.96 169.156 265.225V263.691ZM162.968 272.843C163.644 273.519 164.502 273.857 165.542 273.857C166.582 273.857 167.44 273.519 168.116 272.843C168.809 272.15 169.156 271.266 169.156 270.191C169.156 269.117 168.809 268.241 168.116 267.565C167.44 266.872 166.582 266.525 165.542 266.525C164.502 266.525 163.644 266.872 162.968 267.565C162.292 268.241 161.954 269.117 161.954 270.191C161.954 271.266 162.292 272.15 162.968 272.843ZM182.987 266.915H180.049V272.323C180.049 272.774 180.162 273.103 180.387 273.311C180.613 273.519 180.942 273.641 181.375 273.675C181.809 273.693 182.346 273.684 182.987 273.649V276.691C180.682 276.951 179.053 276.735 178.099 276.041C177.163 275.348 176.695 274.109 176.695 272.323V266.915H174.433V263.691H176.695V261.065L180.049 260.051V263.691H182.987V266.915ZM187.78 271.569C188.231 273.199 189.453 274.013 191.446 274.013C192.729 274.013 193.699 273.58 194.358 272.713L197.062 274.273C195.779 276.128 193.89 277.055 191.394 277.055C189.245 277.055 187.52 276.405 186.22 275.105C184.92 273.805 184.27 272.167 184.27 270.191C184.27 268.233 184.911 266.603 186.194 265.303C187.477 263.986 189.123 263.327 191.134 263.327C193.041 263.327 194.609 263.986 195.84 265.303C197.088 266.621 197.712 268.25 197.712 270.191C197.712 270.625 197.669 271.084 197.582 271.569H187.78ZM187.728 268.969H194.358C194.167 268.085 193.769 267.427 193.162 266.993C192.573 266.56 191.897 266.343 191.134 266.343C190.233 266.343 189.487 266.577 188.898 267.045C188.309 267.496 187.919 268.137 187.728 268.969ZM214.183 263.691H217.745L213.611 276.691H210.413L208.021 268.813L205.629 276.691H202.431L198.297 263.691H201.859L204.069 271.673L206.435 263.691H209.607L211.973 271.699L214.183 263.691ZM228.926 263.691H232.28V276.691H228.926V275.157C227.92 276.423 226.508 277.055 224.688 277.055C222.954 277.055 221.464 276.397 220.216 275.079C218.985 273.745 218.37 272.115 218.37 270.191C218.37 268.267 218.985 266.647 220.216 265.329C221.464 263.995 222.954 263.327 224.688 263.327C226.508 263.327 227.92 263.96 228.926 265.225V263.691ZM222.738 272.843C223.414 273.519 224.272 273.857 225.312 273.857C226.352 273.857 227.21 273.519 227.886 272.843C228.579 272.15 228.926 271.266 228.926 270.191C228.926 269.117 228.579 268.241 227.886 267.565C227.21 266.872 226.352 266.525 225.312 266.525C224.272 266.525 223.414 266.872 222.738 267.565C222.062 268.241 221.724 269.117 221.724 270.191C221.724 271.266 222.062 272.15 222.738 272.843ZM243.797 263.691H247.385L242.653 276.691C241.977 278.563 241.076 279.915 239.949 280.747C238.84 281.597 237.453 281.978 235.789 281.891V278.771C236.69 278.789 237.401 278.598 237.921 278.199C238.458 277.801 238.883 277.159 239.195 276.275L233.865 263.691H237.531L240.911 272.427L243.797 263.691ZM262.917 266.915H259.979V272.323C259.979 272.774 260.092 273.103 260.317 273.311C260.542 273.519 260.872 273.641 261.305 273.675C261.738 273.693 262.276 273.684 262.917 273.649V276.691C260.612 276.951 258.982 276.735 258.029 276.041C257.093 275.348 256.625 274.109 256.625 272.323V266.915H254.363V263.691H256.625V261.065L259.979 260.051V263.691H262.917V266.915ZM275.952 275.079C274.617 276.397 272.988 277.055 271.064 277.055C269.14 277.055 267.51 276.397 266.176 275.079C264.858 273.745 264.2 272.115 264.2 270.191C264.2 268.267 264.858 266.647 266.176 265.329C267.51 263.995 269.14 263.327 271.064 263.327C272.988 263.327 274.617 263.995 275.952 265.329C277.286 266.647 277.954 268.267 277.954 270.191C277.954 272.115 277.286 273.745 275.952 275.079ZM268.542 272.765C269.218 273.441 270.058 273.779 271.064 273.779C272.069 273.779 272.91 273.441 273.586 272.765C274.262 272.089 274.6 271.231 274.6 270.191C274.6 269.151 274.262 268.293 273.586 267.617C272.91 266.941 272.069 266.603 271.064 266.603C270.058 266.603 269.218 266.941 268.542 267.617C267.883 268.293 267.554 269.151 267.554 270.191C267.554 271.231 267.883 272.089 268.542 272.765ZM150.736 315.691L145.64 297.491H149.41L152.894 310.985L156.69 297.491H159.758L163.58 310.985L167.064 297.491H170.834L165.738 315.691H161.656L158.224 303.679L154.818 315.691H150.736ZM174.044 310.569C174.494 312.199 175.716 313.013 177.71 313.013C178.992 313.013 179.963 312.58 180.622 311.713L183.326 313.273C182.043 315.128 180.154 316.055 177.658 316.055C175.508 316.055 173.784 315.405 172.484 314.105C171.184 312.805 170.534 311.167 170.534 309.191C170.534 307.233 171.175 305.603 172.458 304.303C173.74 302.986 175.387 302.327 177.398 302.327C179.304 302.327 180.873 302.986 182.104 304.303C183.352 305.621 183.976 307.25 183.976 309.191C183.976 309.625 183.932 310.084 183.846 310.569H174.044ZM173.992 307.969H180.622C180.431 307.085 180.032 306.427 179.426 305.993C178.836 305.56 178.16 305.343 177.398 305.343C176.496 305.343 175.751 305.577 175.162 306.045C174.572 306.496 174.182 307.137 173.992 307.969ZM193.883 302.327C195.634 302.327 197.124 302.995 198.355 304.329C199.603 305.647 200.227 307.267 200.227 309.191C200.227 311.115 199.603 312.745 198.355 314.079C197.124 315.397 195.634 316.055 193.883 316.055C192.063 316.055 190.659 315.423 189.671 314.157V315.691H186.317V297.491H189.671V304.225C190.659 302.96 192.063 302.327 193.883 302.327ZM190.685 311.843C191.361 312.519 192.219 312.857 193.259 312.857C194.299 312.857 195.157 312.519 195.833 311.843C196.526 311.15 196.873 310.266 196.873 309.191C196.873 308.117 196.526 307.241 195.833 306.565C195.157 305.872 194.299 305.525 193.259 305.525C192.219 305.525 191.361 305.872 190.685 306.565C190.009 307.241 189.671 308.117 189.671 309.191C189.671 310.266 190.009 311.15 190.685 311.843ZM210.236 304.875C211.467 305.239 212.464 305.881 213.226 306.799C214.006 307.701 214.396 308.793 214.396 310.075C214.396 311.947 213.764 313.412 212.498 314.469C211.25 315.527 209.716 316.055 207.896 316.055C206.475 316.055 205.201 315.735 204.074 315.093C202.965 314.435 202.159 313.473 201.656 312.207L204.724 310.439C205.175 311.843 206.232 312.545 207.896 312.545C208.815 312.545 209.526 312.329 210.028 311.895C210.548 311.445 210.808 310.838 210.808 310.075C210.808 309.33 210.548 308.732 210.028 308.281C209.526 307.831 208.815 307.605 207.896 307.605H207.116L205.738 305.525L209.326 300.845H202.202V297.491H213.642V300.455L210.236 304.875Z" fill="#594F77"/>
<defs>
<filter id="filter0_f_4930_13193" x="14" y="93.5" width="331.938" height="274.5" filterUnits="userSpaceOnUse" color-interpolation-filters="sRGB">
<feFlood flood-opacity="0" result="BackgroundImageFix"/>
<feBlend mode="normal" in="SourceGraphic" in2="BackgroundImageFix" result="shape"/>
<feGaussianBlur stdDeviation="1" result="effect1_foregroundBlur_4930_13193"/>
</filter>
<filter id="filter1_d_4930_13193" x="-17.6016" y="65.9844" width="395.133" height="337.535" filterUnits="userSpaceOnUse" color-interpolation-filters="sRGB">
<feFlood flood-opacity="0" result="BackgroundImageFix"/>
<feColorMatrix in="SourceAlpha" type="matrix" values="0 0 0 0 0 0 0 0 0 0 0 0 0 0 0 0 0 0 127 0" result="hardAlpha"/>
<feOffset dy="4"/>
<feGaussianBlur stdDeviation="18.5"/>
<feComposite in2="hardAlpha" operator="out"/>
<feColorMatrix type="matrix" values="0 0 0 0 0.411765 0 0 0 0 0.427451 0 0 0 0 0.894118 0 0 0 0.32 0"/>
<feBlend mode="normal" in2="BackgroundImageFix" result="effect1_dropShadow_4930_13193"/>
<feBlend mode="normal" in="SourceGraphic" in2="effect1_dropShadow_4930_13193" result="shape"/>
</filter>
<filter id="filter2_f_4930_13193" x="51.1484" y="0.566406" width="263.25" height="263.25" filterUnits="userSpaceOnUse" color-interpolation-filters="sRGB">
<feFlood flood-opacity="0" result="BackgroundImageFix"/>
<feBlend mode="normal" in="SourceGraphic" in2="BackgroundImageFix" result="shape"/>
<feGaussianBlur stdDeviation="32.5" result="effect1_foregroundBlur_4930_13193"/>
</filter>
<filter id="filter3_d_4930_13193" x="174.544" y="42.9449" width="99.1317" height="196.257" filterUnits="userSpaceOnUse" color-interpolation-filters="sRGB">
<feFlood flood-opacity="0" result="BackgroundImageFix"/>
<feColorMatrix in="SourceAlpha" type="matrix" values="0 0 0 0 0 0 0 0 0 0 0 0 0 0 0 0 0 0 127 0" result="hardAlpha"/>
<feOffset dx="5.227" dy="8.21385"/>
<feGaussianBlur stdDeviation="6.72043"/>
<feComposite in2="hardAlpha" operator="out"/>
<feColorMatrix type="matrix" values="0 0 0 0 0.67451 0 0 0 0 0.533333 0 0 0 0 0.952941 0 0 0 0.55 0"/>
<feBlend mode="normal" in2="BackgroundImageFix" result="effect1_dropShadow_4930_13193"/>
<feBlend mode="normal" in="SourceGraphic" in2="effect1_dropShadow_4930_13193" result="shape"/>
</filter>
<filter id="filter4_bi_4930_13193" x="100.18" y="38.1719" width="92.5938" height="189.363" filterUnits="userSpaceOnUse" color-interpolation-filters="sRGB">
<feFlood flood-opacity="0" result="BackgroundImageFix"/>
<feGaussianBlur in="BackgroundImage" stdDeviation="5"/>
<feComposite in2="SourceAlpha" operator="in" result="effect1_backgroundBlur_4930_13193"/>
<feBlend mode="normal" in="SourceGraphic" in2="effect1_backgroundBlur_4930_13193" result="shape"/>
<feColorMatrix in="SourceAlpha" type="matrix" values="0 0 0 0 0 0 0 0 0 0 0 0 0 0 0 0 0 0 127 0" result="hardAlpha"/>
<feOffset dx="1" dy="1"/>
<feGaussianBlur stdDeviation="15"/>
<feComposite in2="hardAlpha" operator="arithmetic" k2="-1" k3="1"/>
<feColorMatrix type="matrix" values="0 0 0 0 1 0 0 0 0 1 0 0 0 0 1 0 0 0 1 0"/>
<feBlend mode="normal" in2="shape" result="effect2_innerShadow_4930_13193"/>
</filter>
<filter id="filter5_bi_4930_13193" x="172.602" y="80.2969" width="92.4688" height="147.418" filterUnits="userSpaceOnUse" color-interpolation-filters="sRGB">
<feFlood flood-opacity="0" result="BackgroundImageFix"/>
<feGaussianBlur in="BackgroundImage" stdDeviation="5"/>
<feComposite in2="SourceAlpha" operator="in" result="effect1_backgroundBlur_4930_13193"/>
<feBlend mode="normal" in="SourceGraphic" in2="effect1_backgroundBlur_4930_13193" result="shape"/>
<feColorMatrix in="SourceAlpha" type="matrix" values="0 0 0 0 0 0 0 0 0 0 0 0 0 0 0 0 0 0 127 0" result="hardAlpha"/>
<feOffset dx="1" dy="1"/>
<feGaussianBlur stdDeviation="15"/>
<feComposite in2="hardAlpha" operator="arithmetic" k2="-1" k3="1"/>
<feColorMatrix type="matrix" values="0 0 0 0 1 0 0 0 0 1 0 0 0 0 1 0 0 0 1 0"/>
<feBlend mode="normal" in2="shape" result="effect2_innerShadow_4930_13193"/>
</filter>
<filter id="filter6_bi_4930_13193" x="100.055" y="38.1953" width="165.047" height="103.996" filterUnits="userSpaceOnUse" color-interpolation-filters="sRGB">
<feFlood flood-opacity="0" result="BackgroundImageFix"/>
<feGaussianBlur in="BackgroundImage" stdDeviation="5"/>
<feComposite in2="SourceAlpha" operator="in" result="effect1_backgroundBlur_4930_13193"/>
<feBlend mode="normal" in="SourceGraphic" in2="effect1_backgroundBlur_4930_13193" result="shape"/>
<feColorMatrix in="SourceAlpha" type="matrix" values="0 0 0 0 0 0 0 0 0 0 0 0 0 0 0 0 0 0 127 0" result="hardAlpha"/>
<feOffset dx="4" dy="4"/>
<feGaussianBlur stdDeviation="15"/>
<feComposite in2="hardAlpha" operator="arithmetic" k2="-1" k3="1"/>
<feColorMatrix type="matrix" values="0 0 0 0 1 0 0 0 0 1 0 0 0 0 1 0 0 0 0.8 0"/>
<feBlend mode="normal" in2="shape" result="effect2_innerShadow_4930_13193"/>
</filter>
<filter id="filter7_bi_4930_13193" x="114.156" y="7.875" width="137.188" height="87.7617" filterUnits="userSpaceOnUse" color-interpolation-filters="sRGB">
<feFlood flood-opacity="0" result="BackgroundImageFix"/>
<feGaussianBlur in="BackgroundImage" stdDeviation="5"/>
<feComposite in2="SourceAlpha" operator="in" result="effect1_backgroundBlur_4930_13193"/>
<feBlend mode="normal" in="SourceGraphic" in2="effect1_backgroundBlur_4930_13193" result="shape"/>
<feColorMatrix in="SourceAlpha" type="matrix" values="0 0 0 0 0 0 0 0 0 0 0 0 0 0 0 0 0 0 127 0" result="hardAlpha"/>
<feOffset dx="4" dy="4"/>
<feGaussianBlur stdDeviation="15"/>
<feComposite in2="hardAlpha" operator="arithmetic" k2="-1" k3="1"/>
<feColorMatrix type="matrix" values="0 0 0 0 1 0 0 0 0 1 0 0 0 0 1 0 0 0 0.8 0"/>
<feBlend mode="normal" in2="shape" result="effect2_innerShadow_4930_13193"/>
</filter>
<filter id="filter8_d_4930_13193" x="101.599" y="84.9175" width="99.6161" height="154.417" filterUnits="userSpaceOnUse" color-interpolation-filters="sRGB">
<feFlood flood-opacity="0" result="BackgroundImageFix"/>
<feColorMatrix in="SourceAlpha" type="matrix" values="0 0 0 0 0 0 0 0 0 0 0 0 0 0 0 0 0 0 127 0" result="hardAlpha"/>
<feOffset dx="5.227" dy="8.21385"/>
<feGaussianBlur stdDeviation="6.72043"/>
<feComposite in2="hardAlpha" operator="out"/>
<feColorMatrix type="matrix" values="0 0 0 0 0.67451 0 0 0 0 0.533333 0 0 0 0 0.952941 0 0 0 0.55 0"/>
<feBlend mode="normal" in2="BackgroundImageFix" result="effect1_dropShadow_4930_13193"/>
<feBlend mode="normal" in="SourceGraphic" in2="effect1_dropShadow_4930_13193" result="shape"/>
</filter>
<filter id="filter9_bi_4930_13193" x="63.7031" y="104.953" width="83.9844" height="122.25" filterUnits="userSpaceOnUse" color-interpolation-filters="sRGB">
<feFlood flood-opacity="0" result="BackgroundImageFix"/>
<feGaussianBlur in="BackgroundImage" stdDeviation="5"/>
<feComposite in2="SourceAlpha" operator="in" result="effect1_backgroundBlur_4930_13193"/>
<feBlend mode="normal" in="SourceGraphic" in2="effect1_backgroundBlur_4930_13193" result="shape"/>
<feColorMatrix in="SourceAlpha" type="matrix" values="0 0 0 0 0 0 0 0 0 0 0 0 0 0 0 0 0 0 127 0" result="hardAlpha"/>
<feOffset dx="4" dy="4"/>
<feGaussianBlur stdDeviation="15"/>
<feComposite in2="hardAlpha" operator="arithmetic" k2="-1" k3="1"/>
<feColorMatrix type="matrix" values="0 0 0 0 1 0 0 0 0 1 0 0 0 0 1 0 0 0 0.8 0"/>
<feBlend mode="normal" in2="shape" result="effect2_innerShadow_4930_13193"/>
</filter>
<filter id="filter10_bi_4930_13193" x="212.781" y="104.953" width="83.9844" height="122.25" filterUnits="userSpaceOnUse" color-interpolation-filters="sRGB">
<feFlood flood-opacity="0" result="BackgroundImageFix"/>
<feGaussianBlur in="BackgroundImage" stdDeviation="5"/>
<feComposite in2="SourceAlpha" operator="in" result="effect1_backgroundBlur_4930_13193"/>
<feBlend mode="normal" in="SourceGraphic" in2="effect1_backgroundBlur_4930_13193" result="shape"/>
<feColorMatrix in="SourceAlpha" type="matrix" values="0 0 0 0 0 0 0 0 0 0 0 0 0 0 0 0 0 0 127 0" result="hardAlpha"/>
<feOffset dx="4" dy="4"/>
<feGaussianBlur stdDeviation="15"/>
<feComposite in2="hardAlpha" operator="arithmetic" k2="-1" k3="1"/>
<feColorMatrix type="matrix" values="0 0 0 0 1 0 0 0 0 1 0 0 0 0 1 0 0 0 0.8 0"/>
<feBlend mode="normal" in2="shape" result="effect2_innerShadow_4930_13193"/>
</filter>
<linearGradient id="paint0_linear_4930_13193" x1="34.2073" y1="-151.814" x2="485.881" y2="-123.22" gradientUnits="userSpaceOnUse">
<stop stop-color="#579AFF"/>
<stop offset="1" stop-color="#EA93FF"/>
</linearGradient>
<linearGradient id="paint1_linear_4930_13193" x1="218.884" y1="48.1719" x2="346.609" y2="142.677" gradientUnits="userSpaceOnUse">
<stop stop-color="#806BBC"/>
<stop offset="1" stop-color="#784CB0"/>
</linearGradient>
<linearGradient id="paint2_linear_4930_13193" x1="182.58" y1="48.1953" x2="222.373" y2="167.386" gradientUnits="userSpaceOnUse">
<stop stop-color="#F3B998"/>
<stop offset="1" stop-color="#F2BA66" stop-opacity="0.24"/>
</linearGradient>
<linearGradient id="paint3_linear_4930_13193" x1="182.75" y1="17.875" x2="214.814" y2="114.056" gradientUnits="userSpaceOnUse">
<stop stop-color="#F3B998"/>
<stop offset="1" stop-color="#F2BA66" stop-opacity="0.24"/>
</linearGradient>
<linearGradient id="paint4_linear_4930_13193" x1="146.178" y1="90.1445" x2="246.744" y2="189.619" gradientUnits="userSpaceOnUse">
<stop stop-color="#F3B998"/>
<stop offset="1" stop-color="#F2BA66" stop-opacity="0.24"/>
</linearGradient>
<linearGradient id="paint5_linear_4930_13193" x1="76.4736" y1="183.203" x2="143.239" y2="106.906" gradientUnits="userSpaceOnUse">
<stop stop-color="#F3B998"/>
<stop offset="1" stop-color="#F2BA66" stop-opacity="0.24"/>
</linearGradient>
<linearGradient id="paint6_linear_4930_13193" x1="283.995" y1="183.203" x2="217.23" y2="106.906" gradientUnits="userSpaceOnUse">
<stop stop-color="#F3B998"/>
<stop offset="1" stop-color="#F2BA66" stop-opacity="0.24"/>
</linearGradient>
</defs>
</svg>
