<svg width="20" height="20" viewBox="0 0 20 20" fill="none" xmlns="http://www.w3.org/2000/svg">
<rect x="1" y="1" width="18" height="18" rx="1" fill="#95F0FF" stroke="#95F0FF" stroke-width="2"/>
<path d="M9.54894 4.92705C9.8483 4.00574 11.1517 4.00574 11.4511 4.92705L12.1839 7.18237C12.3177 7.5944 12.7017 7.87336 13.1349 7.87336L15.5063 7.87336C16.475 7.87336 16.8778 9.11297 16.0941 9.68237L14.1756 11.0762C13.8251 11.3309 13.6784 11.7822 13.8123 12.1943L14.5451 14.4496C14.8445 15.3709 13.79 16.137 13.0063 15.5676L11.0878 14.1738C10.7373 13.9191 10.2627 13.9191 9.91221 14.1738L7.99372 15.5676C7.21001 16.137 6.15553 15.3709 6.45488 14.4496L7.18768 12.1943C7.32155 11.7822 7.1749 11.3309 6.82441 11.0762L4.90592 9.68237C4.1222 9.11297 4.52498 7.87336 5.4937 7.87336L7.86509 7.87336C8.29832 7.87336 8.68227 7.5944 8.81614 7.18237L9.54894 4.92705Z" fill="white"/>
</svg>
