<svg width="34" height="27" viewBox="0 0 34 27" fill="none" xmlns="http://www.w3.org/2000/svg">
<path d="M11.2475 26.0504C23.5804 26.0504 30.3327 16.0283 30.3327 7.3345C30.3327 7.0524 30.3327 6.76518 30.3118 6.48308C31.6246 5.54959 32.7596 4.40068 33.6592 3.07738C32.4353 3.6108 31.1382 3.95958 29.8097 4.11345C31.2114 3.2928 32.2574 2.00028 32.7596 0.476948C31.4415 1.24118 30.0032 1.78486 28.5021 2.07209C25.9602 -0.574509 21.7132 -0.702736 19.0144 1.78486C17.2727 3.39025 16.5353 5.78552 17.074 8.06796C11.6816 7.80125 6.65531 5.30339 3.2504 1.19502C1.47211 4.20065 2.37695 8.04231 5.32682 9.97597C4.25984 9.94519 3.21379 9.66309 2.2828 9.15532C2.2828 9.18096 2.2828 9.21174 2.2828 9.23738C2.2828 12.3661 4.53182 15.064 7.66475 15.6846C6.67623 15.9462 5.64063 15.9872 4.63642 15.7974C5.51511 18.4748 8.03086 20.311 10.9023 20.3674C8.52774 22.1985 5.59356 23.1936 2.5757 23.1884C2.04221 23.1884 1.50873 23.1576 0.980469 23.091C4.03494 25.0246 7.60721 26.0504 11.2475 26.0453" fill="white"/>
</svg>
