<svg width="33" height="27" viewBox="0 0 33 27" fill="none" xmlns="http://www.w3.org/2000/svg">
<path d="M10.267 26.0504C22.6 26.0504 29.3522 16.0283 29.3522 7.3345C29.3522 7.0524 29.3522 6.76518 29.3313 6.48308C30.6441 5.54959 31.7791 4.40068 32.6787 3.07738C31.4548 3.6108 30.1577 3.95958 28.8292 4.11345C30.2309 3.2928 31.277 2.00028 31.7791 0.476948C30.4611 1.24118 29.0227 1.78486 27.5217 2.07209C24.9797 -0.574509 20.7328 -0.702736 18.034 1.78486C16.2923 3.39025 15.5548 5.78552 16.0935 8.06796C10.7011 7.80125 5.67484 5.30339 2.26994 1.19502C0.491645 4.20065 1.39648 8.04231 4.34635 9.97597C3.27938 9.94519 2.23332 9.66309 1.30234 9.15532C1.30234 9.18096 1.30234 9.21174 1.30234 9.23738C1.30234 12.3661 3.55135 15.064 6.68428 15.6846C5.69576 15.9462 4.66017 15.9872 3.65596 15.7974C4.53464 18.4748 7.0504 20.311 9.92181 20.3674C7.54727 22.1985 4.61309 23.1936 1.59523 23.1884C1.06174 23.1884 0.528257 23.1576 0 23.091C3.05447 25.0246 6.62675 26.0504 10.267 26.0453" fill="#1DA1F2"/>
</svg>
